%
M48
M72
T01C0.01378
T02C0.03150
T03C0.03200
T04C0.03937
T05C0.04000
T06C0.07480
%
T01
X66500Y42548
X66500Y71048
X25500Y72098
X81500Y181048
X81500Y196048
X169500Y108048
X173500Y111548
X173500Y51548
X156500Y36048
T02
X136374Y17548
X143500Y17548
X150626Y17548
X167421Y20749
X172146Y23898
X167421Y27048
X172146Y30198
X167421Y33347
T03
X21500Y9698
X21500Y19698
X41500Y21048
X41500Y11048
X66000Y16048
X81500Y16048
X81500Y26048
X66000Y36048
X76500Y51048
X76500Y61048
X60000Y75548
X50000Y75548
X40000Y75548
X40000Y115548
X50000Y115548
X60000Y115548
X96500Y111048
X96500Y101048
X96500Y91048
X96500Y81048
X96500Y71048
X96500Y61048
X96500Y51048
X96500Y26048
X104000Y21048
X96500Y16048
X116500Y16048
X116500Y26048
X126500Y51048
X126500Y61048
X126500Y71048
X126500Y81048
X126500Y91048
X126500Y101048
X126500Y111048
X126500Y121048
X126500Y131048
X126500Y141048
X126500Y151048
X126500Y161048
X126500Y171048
X126500Y181048
X141500Y181048
X141500Y171048
X106500Y196048
X96500Y181048
X96500Y171048
X96500Y161048
X96500Y151048
X96500Y141048
X96500Y131048
X96500Y121048
X141500Y101048
X161500Y101048
X66500Y196048
T04
X127752Y17548
X159248Y17548
T05
X13550Y50948
X33550Y50948
X11500Y71048
X11500Y81048
X11500Y91048
X11500Y101048
X11500Y111048
X11500Y121048
X11500Y131048
X11500Y141048
X11500Y151048
X11500Y161048
X11500Y171048
X11500Y181048
X11500Y191048
X29500Y190548
X49500Y190548
X76500Y106048
X76500Y96048
X76500Y86048
X199000Y81048
X199000Y71048
X199000Y91048
X199000Y101048
X199000Y111048
X199000Y121048
X199000Y131048
X199000Y141048
T06
X187500Y41418
X187500Y12678
M30
