G75*
%MOIN*%
%OFA0B0*%
%FSLAX25Y25*%
%IPPOS*%
%LPD*%
%AMOC8*
5,1,8,0,0,1.08239X$1,22.5*
%
%ADD10C,0.00000*%
%ADD11OC8,0.05600*%
%ADD12C,0.05600*%
%ADD13C,0.05550*%
%ADD14C,0.11620*%
%ADD15C,0.05600*%
%ADD16C,0.07800*%
%ADD17C,0.06337*%
D10*
X0006500Y0006048D02*
X0006500Y0202898D01*
X0203350Y0202898D01*
X0203350Y0006048D01*
X0006500Y0006048D01*
D11*
X0021500Y0009698D03*
X0021500Y0019698D03*
X0041500Y0021048D03*
X0041500Y0011048D03*
X0066000Y0036048D03*
X0076500Y0051048D03*
X0076500Y0061048D03*
X0060000Y0075548D03*
X0050000Y0075548D03*
X0040000Y0075548D03*
X0040000Y0115548D03*
X0050000Y0115548D03*
X0060000Y0115548D03*
X0066500Y0196048D03*
X0106500Y0196048D03*
X0141500Y0181048D03*
X0141500Y0171048D03*
X0161500Y0101048D03*
X0116500Y0026048D03*
X0116500Y0016048D03*
X0104000Y0021048D03*
X0096500Y0016048D03*
X0096500Y0026048D03*
X0081500Y0026048D03*
X0081500Y0016048D03*
D12*
X0066000Y0016048D03*
X0141500Y0101048D03*
D13*
X0167421Y0033347D03*
X0172146Y0030198D03*
X0167421Y0027048D03*
X0172146Y0023898D03*
X0167421Y0020749D03*
X0150626Y0017548D03*
X0143500Y0017548D03*
X0136374Y0017548D03*
D14*
X0187500Y0012678D03*
X0187500Y0041418D03*
D15*
X0129100Y0051048D02*
X0123900Y0051048D01*
X0123900Y0061048D02*
X0129100Y0061048D01*
X0129100Y0071048D02*
X0123900Y0071048D01*
X0123900Y0081048D02*
X0129100Y0081048D01*
X0129100Y0091048D02*
X0123900Y0091048D01*
X0123900Y0101048D02*
X0129100Y0101048D01*
X0129100Y0111048D02*
X0123900Y0111048D01*
X0123900Y0121048D02*
X0129100Y0121048D01*
X0129100Y0131048D02*
X0123900Y0131048D01*
X0123900Y0141048D02*
X0129100Y0141048D01*
X0129100Y0151048D02*
X0123900Y0151048D01*
X0123900Y0161048D02*
X0129100Y0161048D01*
X0129100Y0171048D02*
X0123900Y0171048D01*
X0123900Y0181048D02*
X0129100Y0181048D01*
X0099100Y0181048D02*
X0093900Y0181048D01*
X0093900Y0171048D02*
X0099100Y0171048D01*
X0099100Y0161048D02*
X0093900Y0161048D01*
X0093900Y0151048D02*
X0099100Y0151048D01*
X0099100Y0141048D02*
X0093900Y0141048D01*
X0093900Y0131048D02*
X0099100Y0131048D01*
X0099100Y0121048D02*
X0093900Y0121048D01*
X0093900Y0111048D02*
X0099100Y0111048D01*
X0099100Y0101048D02*
X0093900Y0101048D01*
X0093900Y0091048D02*
X0099100Y0091048D01*
X0099100Y0081048D02*
X0093900Y0081048D01*
X0093900Y0071048D02*
X0099100Y0071048D01*
X0099100Y0061048D02*
X0093900Y0061048D01*
X0093900Y0051048D02*
X0099100Y0051048D01*
D16*
X0076500Y0086048D03*
X0076500Y0096048D03*
X0076500Y0106048D03*
X0033550Y0050948D03*
X0013550Y0050948D03*
X0011500Y0071048D03*
X0011500Y0081048D03*
X0011500Y0091048D03*
X0011500Y0101048D03*
X0011500Y0111048D03*
X0011500Y0121048D03*
X0011500Y0131048D03*
X0011500Y0141048D03*
X0011500Y0151048D03*
X0011500Y0161048D03*
X0011500Y0171048D03*
X0011500Y0181048D03*
X0011500Y0191048D03*
X0029500Y0190548D03*
X0049500Y0190548D03*
X0199000Y0141048D03*
X0199000Y0131048D03*
X0199000Y0121048D03*
X0199000Y0111048D03*
X0199000Y0101048D03*
X0199000Y0091048D03*
X0199000Y0081048D03*
X0199000Y0071048D03*
D17*
X0159248Y0017548D03*
X0127752Y0017548D03*
M02*
