G75*
%MOIN*%
%OFA0B0*%
%FSLAX25Y25*%
%IPPOS*%
%LPD*%
%AMOC8*
5,1,8,0,0,1.08239X$1,22.5*
%
%ADD10C,0.00000*%
%ADD11C,0.00600*%
%ADD12C,0.01200*%
%ADD13C,0.00500*%
D10*
X0006500Y0006048D02*
X0006500Y0202898D01*
X0203350Y0202898D01*
X0203350Y0006048D01*
X0006500Y0006048D01*
D11*
X0019578Y0067348D02*
X0021356Y0067348D01*
X0021356Y0073748D01*
X0019578Y0073748D01*
X0019496Y0073746D01*
X0019414Y0073740D01*
X0019332Y0073731D01*
X0019251Y0073718D01*
X0019171Y0073701D01*
X0019091Y0073680D01*
X0019013Y0073656D01*
X0018936Y0073628D01*
X0018860Y0073597D01*
X0018785Y0073562D01*
X0018713Y0073523D01*
X0018642Y0073482D01*
X0018573Y0073437D01*
X0018507Y0073389D01*
X0018442Y0073338D01*
X0018380Y0073284D01*
X0018321Y0073227D01*
X0018264Y0073168D01*
X0018210Y0073106D01*
X0018159Y0073041D01*
X0018111Y0072975D01*
X0018066Y0072906D01*
X0018025Y0072835D01*
X0017986Y0072763D01*
X0017951Y0072688D01*
X0017920Y0072612D01*
X0017892Y0072535D01*
X0017868Y0072457D01*
X0017847Y0072377D01*
X0017830Y0072297D01*
X0017817Y0072216D01*
X0017808Y0072134D01*
X0017802Y0072052D01*
X0017800Y0071970D01*
X0017800Y0069126D01*
X0017802Y0069044D01*
X0017808Y0068962D01*
X0017817Y0068880D01*
X0017830Y0068799D01*
X0017847Y0068719D01*
X0017868Y0068639D01*
X0017892Y0068561D01*
X0017920Y0068484D01*
X0017951Y0068408D01*
X0017986Y0068333D01*
X0018025Y0068261D01*
X0018066Y0068190D01*
X0018111Y0068121D01*
X0018159Y0068055D01*
X0018210Y0067990D01*
X0018264Y0067928D01*
X0018321Y0067869D01*
X0018380Y0067812D01*
X0018442Y0067758D01*
X0018507Y0067707D01*
X0018573Y0067659D01*
X0018642Y0067614D01*
X0018713Y0067573D01*
X0018785Y0067534D01*
X0018860Y0067499D01*
X0018936Y0067468D01*
X0019013Y0067440D01*
X0019091Y0067416D01*
X0019171Y0067395D01*
X0019251Y0067378D01*
X0019332Y0067365D01*
X0019414Y0067356D01*
X0019496Y0067350D01*
X0019578Y0067348D01*
X0024364Y0067348D02*
X0024364Y0073748D01*
X0026587Y0077348D02*
X0028365Y0077348D01*
X0030717Y0077348D02*
X0031073Y0077348D01*
X0031073Y0077704D01*
X0030717Y0077704D01*
X0030717Y0077348D01*
X0030929Y0073748D02*
X0033062Y0073748D01*
X0033136Y0073746D01*
X0033211Y0073740D01*
X0033284Y0073730D01*
X0033358Y0073717D01*
X0033430Y0073700D01*
X0033501Y0073678D01*
X0033572Y0073654D01*
X0033640Y0073625D01*
X0033708Y0073593D01*
X0033773Y0073557D01*
X0033836Y0073519D01*
X0033898Y0073476D01*
X0033957Y0073431D01*
X0034014Y0073383D01*
X0034068Y0073332D01*
X0034119Y0073278D01*
X0034167Y0073221D01*
X0034212Y0073162D01*
X0034255Y0073100D01*
X0034293Y0073037D01*
X0034329Y0072972D01*
X0034361Y0072904D01*
X0034390Y0072836D01*
X0034414Y0072765D01*
X0034436Y0072694D01*
X0034453Y0072622D01*
X0034466Y0072548D01*
X0034476Y0072475D01*
X0034482Y0072400D01*
X0034484Y0072326D01*
X0034484Y0068770D01*
X0034482Y0068696D01*
X0034476Y0068621D01*
X0034466Y0068548D01*
X0034453Y0068474D01*
X0034436Y0068402D01*
X0034414Y0068331D01*
X0034390Y0068260D01*
X0034361Y0068192D01*
X0034329Y0068124D01*
X0034293Y0068059D01*
X0034255Y0067996D01*
X0034212Y0067934D01*
X0034167Y0067875D01*
X0034119Y0067818D01*
X0034068Y0067764D01*
X0034014Y0067713D01*
X0033957Y0067665D01*
X0033898Y0067620D01*
X0033836Y0067577D01*
X0033773Y0067539D01*
X0033708Y0067503D01*
X0033640Y0067471D01*
X0033572Y0067442D01*
X0033501Y0067418D01*
X0033430Y0067396D01*
X0033358Y0067379D01*
X0033284Y0067366D01*
X0033211Y0067356D01*
X0033136Y0067350D01*
X0033062Y0067348D01*
X0030929Y0067348D01*
X0030929Y0070904D01*
X0031995Y0070904D01*
X0027920Y0073748D02*
X0027920Y0067348D01*
X0024364Y0067348D02*
X0027920Y0073748D01*
X0026587Y0077348D02*
X0026504Y0077350D01*
X0026421Y0077356D01*
X0026338Y0077366D01*
X0026255Y0077379D01*
X0026174Y0077397D01*
X0026093Y0077418D01*
X0026014Y0077443D01*
X0025936Y0077472D01*
X0025859Y0077504D01*
X0025784Y0077540D01*
X0025710Y0077579D01*
X0025639Y0077622D01*
X0025569Y0077668D01*
X0025502Y0077718D01*
X0025437Y0077770D01*
X0025375Y0077825D01*
X0025315Y0077884D01*
X0025258Y0077945D01*
X0025204Y0078008D01*
X0025153Y0078074D01*
X0025106Y0078143D01*
X0025061Y0078213D01*
X0025020Y0078286D01*
X0024983Y0078360D01*
X0024948Y0078436D01*
X0024918Y0078514D01*
X0024891Y0078592D01*
X0024868Y0078673D01*
X0024848Y0078754D01*
X0024833Y0078836D01*
X0024821Y0078918D01*
X0024813Y0079001D01*
X0024809Y0079084D01*
X0024809Y0079168D01*
X0024813Y0079251D01*
X0024821Y0079334D01*
X0024833Y0079416D01*
X0024848Y0079498D01*
X0024868Y0079579D01*
X0024891Y0079660D01*
X0024918Y0079738D01*
X0024948Y0079816D01*
X0024983Y0079892D01*
X0025020Y0079966D01*
X0025061Y0080039D01*
X0025106Y0080109D01*
X0025153Y0080178D01*
X0025204Y0080244D01*
X0025258Y0080307D01*
X0025315Y0080368D01*
X0025375Y0080427D01*
X0025437Y0080482D01*
X0025502Y0080534D01*
X0025569Y0080584D01*
X0025639Y0080630D01*
X0025710Y0080673D01*
X0025784Y0080712D01*
X0025859Y0080748D01*
X0025936Y0080780D01*
X0026014Y0080809D01*
X0026093Y0080834D01*
X0026174Y0080855D01*
X0026255Y0080873D01*
X0026338Y0080886D01*
X0026421Y0080896D01*
X0026504Y0080902D01*
X0026587Y0080904D01*
X0026232Y0080904D02*
X0027654Y0080904D01*
X0026232Y0080904D02*
X0026158Y0080906D01*
X0026083Y0080912D01*
X0026010Y0080922D01*
X0025936Y0080935D01*
X0025864Y0080952D01*
X0025793Y0080974D01*
X0025722Y0080998D01*
X0025654Y0081027D01*
X0025586Y0081059D01*
X0025521Y0081095D01*
X0025458Y0081133D01*
X0025396Y0081176D01*
X0025337Y0081221D01*
X0025280Y0081269D01*
X0025226Y0081320D01*
X0025175Y0081374D01*
X0025127Y0081431D01*
X0025082Y0081490D01*
X0025039Y0081552D01*
X0025001Y0081615D01*
X0024965Y0081680D01*
X0024933Y0081748D01*
X0024904Y0081816D01*
X0024880Y0081887D01*
X0024858Y0081958D01*
X0024841Y0082030D01*
X0024828Y0082104D01*
X0024818Y0082177D01*
X0024812Y0082252D01*
X0024810Y0082326D01*
X0024812Y0082400D01*
X0024818Y0082475D01*
X0024828Y0082548D01*
X0024841Y0082622D01*
X0024858Y0082694D01*
X0024880Y0082765D01*
X0024904Y0082836D01*
X0024933Y0082904D01*
X0024965Y0082972D01*
X0025001Y0083037D01*
X0025039Y0083100D01*
X0025082Y0083162D01*
X0025127Y0083221D01*
X0025175Y0083278D01*
X0025226Y0083332D01*
X0025280Y0083383D01*
X0025337Y0083431D01*
X0025396Y0083476D01*
X0025458Y0083519D01*
X0025521Y0083557D01*
X0025586Y0083593D01*
X0025654Y0083625D01*
X0025722Y0083654D01*
X0025793Y0083678D01*
X0025864Y0083700D01*
X0025936Y0083717D01*
X0026010Y0083730D01*
X0026083Y0083740D01*
X0026158Y0083746D01*
X0026232Y0083748D01*
X0028365Y0083748D01*
X0028365Y0088348D02*
X0026232Y0094748D01*
X0024098Y0088348D01*
X0024632Y0089948D02*
X0027832Y0089948D01*
X0021856Y0089770D02*
X0018300Y0089770D01*
X0019367Y0091192D02*
X0019367Y0088348D01*
X0021856Y0089770D02*
X0020433Y0094748D01*
X0019367Y0098348D02*
X0019367Y0101192D01*
X0018300Y0099770D02*
X0021856Y0099770D01*
X0020433Y0104748D01*
X0020078Y0108348D02*
X0021856Y0108348D01*
X0020078Y0108348D02*
X0019995Y0108350D01*
X0019912Y0108356D01*
X0019829Y0108366D01*
X0019746Y0108379D01*
X0019665Y0108397D01*
X0019584Y0108418D01*
X0019505Y0108443D01*
X0019427Y0108472D01*
X0019350Y0108504D01*
X0019275Y0108540D01*
X0019201Y0108579D01*
X0019130Y0108622D01*
X0019060Y0108668D01*
X0018993Y0108718D01*
X0018928Y0108770D01*
X0018866Y0108825D01*
X0018806Y0108884D01*
X0018749Y0108945D01*
X0018695Y0109008D01*
X0018644Y0109074D01*
X0018597Y0109143D01*
X0018552Y0109213D01*
X0018511Y0109286D01*
X0018474Y0109360D01*
X0018439Y0109436D01*
X0018409Y0109514D01*
X0018382Y0109592D01*
X0018359Y0109673D01*
X0018339Y0109754D01*
X0018324Y0109836D01*
X0018312Y0109918D01*
X0018304Y0110001D01*
X0018300Y0110084D01*
X0018300Y0110168D01*
X0018304Y0110251D01*
X0018312Y0110334D01*
X0018324Y0110416D01*
X0018339Y0110498D01*
X0018359Y0110579D01*
X0018382Y0110660D01*
X0018409Y0110738D01*
X0018439Y0110816D01*
X0018474Y0110892D01*
X0018511Y0110966D01*
X0018552Y0111039D01*
X0018597Y0111109D01*
X0018644Y0111178D01*
X0018695Y0111244D01*
X0018749Y0111307D01*
X0018806Y0111368D01*
X0018866Y0111427D01*
X0018928Y0111482D01*
X0018993Y0111534D01*
X0019060Y0111584D01*
X0019130Y0111630D01*
X0019201Y0111673D01*
X0019275Y0111712D01*
X0019350Y0111748D01*
X0019427Y0111780D01*
X0019505Y0111809D01*
X0019584Y0111834D01*
X0019665Y0111855D01*
X0019746Y0111873D01*
X0019829Y0111886D01*
X0019912Y0111896D01*
X0019995Y0111902D01*
X0020078Y0111904D01*
X0019722Y0111904D02*
X0021144Y0111904D01*
X0019722Y0111904D02*
X0019648Y0111906D01*
X0019573Y0111912D01*
X0019500Y0111922D01*
X0019426Y0111935D01*
X0019354Y0111952D01*
X0019283Y0111974D01*
X0019212Y0111998D01*
X0019144Y0112027D01*
X0019076Y0112059D01*
X0019011Y0112095D01*
X0018948Y0112133D01*
X0018886Y0112176D01*
X0018827Y0112221D01*
X0018770Y0112269D01*
X0018716Y0112320D01*
X0018665Y0112374D01*
X0018617Y0112431D01*
X0018572Y0112490D01*
X0018529Y0112552D01*
X0018491Y0112615D01*
X0018455Y0112680D01*
X0018423Y0112748D01*
X0018394Y0112816D01*
X0018370Y0112887D01*
X0018348Y0112958D01*
X0018331Y0113030D01*
X0018318Y0113104D01*
X0018308Y0113177D01*
X0018302Y0113252D01*
X0018300Y0113326D01*
X0018302Y0113400D01*
X0018308Y0113475D01*
X0018318Y0113548D01*
X0018331Y0113622D01*
X0018348Y0113694D01*
X0018370Y0113765D01*
X0018394Y0113836D01*
X0018423Y0113904D01*
X0018455Y0113972D01*
X0018491Y0114037D01*
X0018529Y0114100D01*
X0018572Y0114162D01*
X0018617Y0114221D01*
X0018665Y0114278D01*
X0018716Y0114332D01*
X0018770Y0114383D01*
X0018827Y0114431D01*
X0018886Y0114476D01*
X0018948Y0114519D01*
X0019011Y0114557D01*
X0019076Y0114593D01*
X0019144Y0114625D01*
X0019212Y0114654D01*
X0019283Y0114678D01*
X0019354Y0114700D01*
X0019426Y0114717D01*
X0019500Y0114730D01*
X0019573Y0114740D01*
X0019648Y0114746D01*
X0019722Y0114748D01*
X0021856Y0114748D01*
X0021856Y0118348D02*
X0018300Y0118348D01*
X0021856Y0118348D02*
X0018833Y0121904D01*
X0019900Y0124748D02*
X0019989Y0124746D01*
X0020078Y0124740D01*
X0020167Y0124731D01*
X0020255Y0124717D01*
X0020342Y0124700D01*
X0020429Y0124679D01*
X0020515Y0124654D01*
X0020599Y0124626D01*
X0020682Y0124593D01*
X0020764Y0124558D01*
X0020844Y0124518D01*
X0020922Y0124476D01*
X0020999Y0124430D01*
X0021073Y0124381D01*
X0021145Y0124328D01*
X0021215Y0124273D01*
X0021282Y0124214D01*
X0021347Y0124153D01*
X0021409Y0124089D01*
X0021468Y0124022D01*
X0021524Y0123953D01*
X0021577Y0123881D01*
X0021627Y0123807D01*
X0021674Y0123731D01*
X0021717Y0123654D01*
X0021757Y0123574D01*
X0021794Y0123492D01*
X0021827Y0123410D01*
X0021856Y0123325D01*
X0018833Y0121903D02*
X0018776Y0121961D01*
X0018720Y0122022D01*
X0018668Y0122085D01*
X0018619Y0122150D01*
X0018573Y0122218D01*
X0018531Y0122288D01*
X0018491Y0122360D01*
X0018456Y0122433D01*
X0018423Y0122509D01*
X0018395Y0122585D01*
X0018370Y0122663D01*
X0018349Y0122742D01*
X0018331Y0122822D01*
X0018318Y0122903D01*
X0018308Y0122984D01*
X0018302Y0123066D01*
X0018300Y0123148D01*
X0018302Y0123227D01*
X0018308Y0123305D01*
X0018317Y0123383D01*
X0018331Y0123460D01*
X0018348Y0123537D01*
X0018369Y0123612D01*
X0018394Y0123687D01*
X0018422Y0123760D01*
X0018454Y0123832D01*
X0018489Y0123902D01*
X0018528Y0123971D01*
X0018570Y0124037D01*
X0018615Y0124101D01*
X0018663Y0124163D01*
X0018714Y0124222D01*
X0018769Y0124279D01*
X0018826Y0124334D01*
X0018885Y0124385D01*
X0018947Y0124433D01*
X0019011Y0124478D01*
X0019077Y0124520D01*
X0019146Y0124559D01*
X0019216Y0124594D01*
X0019288Y0124626D01*
X0019361Y0124654D01*
X0019436Y0124679D01*
X0019511Y0124700D01*
X0019588Y0124717D01*
X0019665Y0124731D01*
X0019743Y0124740D01*
X0019821Y0124746D01*
X0019900Y0124748D01*
X0020078Y0128348D02*
X0020078Y0134748D01*
X0021856Y0133326D01*
X0024632Y0129948D02*
X0027832Y0129948D01*
X0028365Y0128348D02*
X0026232Y0134748D01*
X0024098Y0128348D01*
X0021856Y0128348D02*
X0018300Y0128348D01*
X0025944Y0124748D02*
X0027721Y0124748D01*
X0027721Y0118348D01*
X0025944Y0118348D01*
X0025861Y0118350D01*
X0025778Y0118356D01*
X0025695Y0118366D01*
X0025612Y0118379D01*
X0025531Y0118397D01*
X0025450Y0118418D01*
X0025371Y0118443D01*
X0025293Y0118472D01*
X0025216Y0118504D01*
X0025141Y0118540D01*
X0025067Y0118579D01*
X0024996Y0118622D01*
X0024926Y0118668D01*
X0024859Y0118718D01*
X0024794Y0118770D01*
X0024732Y0118825D01*
X0024672Y0118884D01*
X0024615Y0118945D01*
X0024561Y0119008D01*
X0024510Y0119074D01*
X0024463Y0119143D01*
X0024418Y0119213D01*
X0024377Y0119286D01*
X0024340Y0119360D01*
X0024305Y0119436D01*
X0024275Y0119514D01*
X0024248Y0119592D01*
X0024225Y0119673D01*
X0024205Y0119754D01*
X0024190Y0119836D01*
X0024178Y0119918D01*
X0024170Y0120001D01*
X0024166Y0120084D01*
X0024166Y0120168D01*
X0024170Y0120251D01*
X0024178Y0120334D01*
X0024190Y0120416D01*
X0024205Y0120498D01*
X0024225Y0120579D01*
X0024248Y0120660D01*
X0024275Y0120738D01*
X0024305Y0120816D01*
X0024340Y0120892D01*
X0024377Y0120966D01*
X0024418Y0121039D01*
X0024463Y0121109D01*
X0024510Y0121178D01*
X0024561Y0121244D01*
X0024615Y0121307D01*
X0024672Y0121368D01*
X0024732Y0121427D01*
X0024794Y0121482D01*
X0024859Y0121534D01*
X0024926Y0121584D01*
X0024996Y0121630D01*
X0025067Y0121673D01*
X0025141Y0121712D01*
X0025216Y0121748D01*
X0025293Y0121780D01*
X0025371Y0121809D01*
X0025450Y0121834D01*
X0025531Y0121855D01*
X0025612Y0121873D01*
X0025695Y0121886D01*
X0025778Y0121896D01*
X0025861Y0121902D01*
X0025944Y0121904D01*
X0027721Y0121904D01*
X0025944Y0121904D02*
X0025870Y0121906D01*
X0025795Y0121912D01*
X0025722Y0121922D01*
X0025648Y0121935D01*
X0025576Y0121952D01*
X0025505Y0121974D01*
X0025434Y0121998D01*
X0025366Y0122027D01*
X0025298Y0122059D01*
X0025233Y0122095D01*
X0025170Y0122133D01*
X0025108Y0122176D01*
X0025049Y0122221D01*
X0024992Y0122269D01*
X0024938Y0122320D01*
X0024887Y0122374D01*
X0024839Y0122431D01*
X0024794Y0122490D01*
X0024751Y0122552D01*
X0024713Y0122615D01*
X0024677Y0122680D01*
X0024645Y0122748D01*
X0024616Y0122816D01*
X0024592Y0122887D01*
X0024570Y0122958D01*
X0024553Y0123030D01*
X0024540Y0123104D01*
X0024530Y0123177D01*
X0024524Y0123252D01*
X0024522Y0123326D01*
X0024524Y0123400D01*
X0024530Y0123475D01*
X0024540Y0123548D01*
X0024553Y0123622D01*
X0024570Y0123694D01*
X0024592Y0123765D01*
X0024616Y0123836D01*
X0024645Y0123904D01*
X0024677Y0123972D01*
X0024713Y0124037D01*
X0024751Y0124100D01*
X0024794Y0124162D01*
X0024839Y0124221D01*
X0024887Y0124278D01*
X0024938Y0124332D01*
X0024992Y0124383D01*
X0025049Y0124431D01*
X0025108Y0124476D01*
X0025170Y0124519D01*
X0025233Y0124557D01*
X0025298Y0124593D01*
X0025366Y0124625D01*
X0025434Y0124654D01*
X0025505Y0124678D01*
X0025576Y0124700D01*
X0025648Y0124717D01*
X0025722Y0124730D01*
X0025795Y0124740D01*
X0025870Y0124746D01*
X0025944Y0124748D01*
X0025944Y0114748D02*
X0027721Y0114748D01*
X0027721Y0108348D01*
X0025944Y0108348D01*
X0025861Y0108350D01*
X0025778Y0108356D01*
X0025695Y0108366D01*
X0025612Y0108379D01*
X0025531Y0108397D01*
X0025450Y0108418D01*
X0025371Y0108443D01*
X0025293Y0108472D01*
X0025216Y0108504D01*
X0025141Y0108540D01*
X0025067Y0108579D01*
X0024996Y0108622D01*
X0024926Y0108668D01*
X0024859Y0108718D01*
X0024794Y0108770D01*
X0024732Y0108825D01*
X0024672Y0108884D01*
X0024615Y0108945D01*
X0024561Y0109008D01*
X0024510Y0109074D01*
X0024463Y0109143D01*
X0024418Y0109213D01*
X0024377Y0109286D01*
X0024340Y0109360D01*
X0024305Y0109436D01*
X0024275Y0109514D01*
X0024248Y0109592D01*
X0024225Y0109673D01*
X0024205Y0109754D01*
X0024190Y0109836D01*
X0024178Y0109918D01*
X0024170Y0110001D01*
X0024166Y0110084D01*
X0024166Y0110168D01*
X0024170Y0110251D01*
X0024178Y0110334D01*
X0024190Y0110416D01*
X0024205Y0110498D01*
X0024225Y0110579D01*
X0024248Y0110660D01*
X0024275Y0110738D01*
X0024305Y0110816D01*
X0024340Y0110892D01*
X0024377Y0110966D01*
X0024418Y0111039D01*
X0024463Y0111109D01*
X0024510Y0111178D01*
X0024561Y0111244D01*
X0024615Y0111307D01*
X0024672Y0111368D01*
X0024732Y0111427D01*
X0024794Y0111482D01*
X0024859Y0111534D01*
X0024926Y0111584D01*
X0024996Y0111630D01*
X0025067Y0111673D01*
X0025141Y0111712D01*
X0025216Y0111748D01*
X0025293Y0111780D01*
X0025371Y0111809D01*
X0025450Y0111834D01*
X0025531Y0111855D01*
X0025612Y0111873D01*
X0025695Y0111886D01*
X0025778Y0111896D01*
X0025861Y0111902D01*
X0025944Y0111904D01*
X0027721Y0111904D01*
X0025944Y0111904D02*
X0025870Y0111906D01*
X0025795Y0111912D01*
X0025722Y0111922D01*
X0025648Y0111935D01*
X0025576Y0111952D01*
X0025505Y0111974D01*
X0025434Y0111998D01*
X0025366Y0112027D01*
X0025298Y0112059D01*
X0025233Y0112095D01*
X0025170Y0112133D01*
X0025108Y0112176D01*
X0025049Y0112221D01*
X0024992Y0112269D01*
X0024938Y0112320D01*
X0024887Y0112374D01*
X0024839Y0112431D01*
X0024794Y0112490D01*
X0024751Y0112552D01*
X0024713Y0112615D01*
X0024677Y0112680D01*
X0024645Y0112748D01*
X0024616Y0112816D01*
X0024592Y0112887D01*
X0024570Y0112958D01*
X0024553Y0113030D01*
X0024540Y0113104D01*
X0024530Y0113177D01*
X0024524Y0113252D01*
X0024522Y0113326D01*
X0024524Y0113400D01*
X0024530Y0113475D01*
X0024540Y0113548D01*
X0024553Y0113622D01*
X0024570Y0113694D01*
X0024592Y0113765D01*
X0024616Y0113836D01*
X0024645Y0113904D01*
X0024677Y0113972D01*
X0024713Y0114037D01*
X0024751Y0114100D01*
X0024794Y0114162D01*
X0024839Y0114221D01*
X0024887Y0114278D01*
X0024938Y0114332D01*
X0024992Y0114383D01*
X0025049Y0114431D01*
X0025108Y0114476D01*
X0025170Y0114519D01*
X0025233Y0114557D01*
X0025298Y0114593D01*
X0025366Y0114625D01*
X0025434Y0114654D01*
X0025505Y0114678D01*
X0025576Y0114700D01*
X0025648Y0114717D01*
X0025722Y0114730D01*
X0025795Y0114740D01*
X0025870Y0114746D01*
X0025944Y0114748D01*
X0025944Y0104748D02*
X0027721Y0104748D01*
X0027721Y0098348D01*
X0025944Y0098348D01*
X0025861Y0098350D01*
X0025778Y0098356D01*
X0025695Y0098366D01*
X0025612Y0098379D01*
X0025531Y0098397D01*
X0025450Y0098418D01*
X0025371Y0098443D01*
X0025293Y0098472D01*
X0025216Y0098504D01*
X0025141Y0098540D01*
X0025067Y0098579D01*
X0024996Y0098622D01*
X0024926Y0098668D01*
X0024859Y0098718D01*
X0024794Y0098770D01*
X0024732Y0098825D01*
X0024672Y0098884D01*
X0024615Y0098945D01*
X0024561Y0099008D01*
X0024510Y0099074D01*
X0024463Y0099143D01*
X0024418Y0099213D01*
X0024377Y0099286D01*
X0024340Y0099360D01*
X0024305Y0099436D01*
X0024275Y0099514D01*
X0024248Y0099592D01*
X0024225Y0099673D01*
X0024205Y0099754D01*
X0024190Y0099836D01*
X0024178Y0099918D01*
X0024170Y0100001D01*
X0024166Y0100084D01*
X0024166Y0100168D01*
X0024170Y0100251D01*
X0024178Y0100334D01*
X0024190Y0100416D01*
X0024205Y0100498D01*
X0024225Y0100579D01*
X0024248Y0100660D01*
X0024275Y0100738D01*
X0024305Y0100816D01*
X0024340Y0100892D01*
X0024377Y0100966D01*
X0024418Y0101039D01*
X0024463Y0101109D01*
X0024510Y0101178D01*
X0024561Y0101244D01*
X0024615Y0101307D01*
X0024672Y0101368D01*
X0024732Y0101427D01*
X0024794Y0101482D01*
X0024859Y0101534D01*
X0024926Y0101584D01*
X0024996Y0101630D01*
X0025067Y0101673D01*
X0025141Y0101712D01*
X0025216Y0101748D01*
X0025293Y0101780D01*
X0025371Y0101809D01*
X0025450Y0101834D01*
X0025531Y0101855D01*
X0025612Y0101873D01*
X0025695Y0101886D01*
X0025778Y0101896D01*
X0025861Y0101902D01*
X0025944Y0101904D01*
X0027721Y0101904D01*
X0025944Y0101904D02*
X0025870Y0101906D01*
X0025795Y0101912D01*
X0025722Y0101922D01*
X0025648Y0101935D01*
X0025576Y0101952D01*
X0025505Y0101974D01*
X0025434Y0101998D01*
X0025366Y0102027D01*
X0025298Y0102059D01*
X0025233Y0102095D01*
X0025170Y0102133D01*
X0025108Y0102176D01*
X0025049Y0102221D01*
X0024992Y0102269D01*
X0024938Y0102320D01*
X0024887Y0102374D01*
X0024839Y0102431D01*
X0024794Y0102490D01*
X0024751Y0102552D01*
X0024713Y0102615D01*
X0024677Y0102680D01*
X0024645Y0102748D01*
X0024616Y0102816D01*
X0024592Y0102887D01*
X0024570Y0102958D01*
X0024553Y0103030D01*
X0024540Y0103104D01*
X0024530Y0103177D01*
X0024524Y0103252D01*
X0024522Y0103326D01*
X0024524Y0103400D01*
X0024530Y0103475D01*
X0024540Y0103548D01*
X0024553Y0103622D01*
X0024570Y0103694D01*
X0024592Y0103765D01*
X0024616Y0103836D01*
X0024645Y0103904D01*
X0024677Y0103972D01*
X0024713Y0104037D01*
X0024751Y0104100D01*
X0024794Y0104162D01*
X0024839Y0104221D01*
X0024887Y0104278D01*
X0024938Y0104332D01*
X0024992Y0104383D01*
X0025049Y0104431D01*
X0025108Y0104476D01*
X0025170Y0104519D01*
X0025233Y0104557D01*
X0025298Y0104593D01*
X0025366Y0104625D01*
X0025434Y0104654D01*
X0025505Y0104678D01*
X0025576Y0104700D01*
X0025648Y0104717D01*
X0025722Y0104730D01*
X0025795Y0104740D01*
X0025870Y0104746D01*
X0025944Y0104748D01*
X0022567Y0083748D02*
X0020433Y0077348D01*
X0018300Y0083748D01*
X0034847Y0083748D02*
X0036981Y0083748D01*
X0036270Y0080904D02*
X0034847Y0080904D01*
X0034773Y0080906D01*
X0034698Y0080912D01*
X0034625Y0080922D01*
X0034551Y0080935D01*
X0034479Y0080952D01*
X0034408Y0080974D01*
X0034337Y0080998D01*
X0034269Y0081027D01*
X0034201Y0081059D01*
X0034136Y0081095D01*
X0034073Y0081133D01*
X0034011Y0081176D01*
X0033952Y0081221D01*
X0033895Y0081269D01*
X0033841Y0081320D01*
X0033790Y0081374D01*
X0033742Y0081431D01*
X0033697Y0081490D01*
X0033654Y0081552D01*
X0033616Y0081615D01*
X0033580Y0081680D01*
X0033548Y0081748D01*
X0033519Y0081816D01*
X0033495Y0081887D01*
X0033473Y0081958D01*
X0033456Y0082030D01*
X0033443Y0082104D01*
X0033433Y0082177D01*
X0033427Y0082252D01*
X0033425Y0082326D01*
X0033427Y0082400D01*
X0033433Y0082475D01*
X0033443Y0082548D01*
X0033456Y0082622D01*
X0033473Y0082694D01*
X0033495Y0082765D01*
X0033519Y0082836D01*
X0033548Y0082904D01*
X0033580Y0082972D01*
X0033616Y0083037D01*
X0033654Y0083100D01*
X0033697Y0083162D01*
X0033742Y0083221D01*
X0033790Y0083278D01*
X0033841Y0083332D01*
X0033895Y0083383D01*
X0033952Y0083431D01*
X0034011Y0083476D01*
X0034073Y0083519D01*
X0034136Y0083557D01*
X0034201Y0083593D01*
X0034269Y0083625D01*
X0034337Y0083654D01*
X0034408Y0083678D01*
X0034479Y0083700D01*
X0034551Y0083717D01*
X0034625Y0083730D01*
X0034698Y0083740D01*
X0034773Y0083746D01*
X0034847Y0083748D01*
X0035203Y0080904D02*
X0035120Y0080902D01*
X0035037Y0080896D01*
X0034954Y0080886D01*
X0034871Y0080873D01*
X0034790Y0080855D01*
X0034709Y0080834D01*
X0034630Y0080809D01*
X0034552Y0080780D01*
X0034475Y0080748D01*
X0034400Y0080712D01*
X0034326Y0080673D01*
X0034255Y0080630D01*
X0034185Y0080584D01*
X0034118Y0080534D01*
X0034053Y0080482D01*
X0033991Y0080427D01*
X0033931Y0080368D01*
X0033874Y0080307D01*
X0033820Y0080244D01*
X0033769Y0080178D01*
X0033722Y0080109D01*
X0033677Y0080039D01*
X0033636Y0079966D01*
X0033599Y0079892D01*
X0033564Y0079816D01*
X0033534Y0079738D01*
X0033507Y0079660D01*
X0033484Y0079579D01*
X0033464Y0079498D01*
X0033449Y0079416D01*
X0033437Y0079334D01*
X0033429Y0079251D01*
X0033425Y0079168D01*
X0033425Y0079084D01*
X0033429Y0079001D01*
X0033437Y0078918D01*
X0033449Y0078836D01*
X0033464Y0078754D01*
X0033484Y0078673D01*
X0033507Y0078592D01*
X0033534Y0078514D01*
X0033564Y0078436D01*
X0033599Y0078360D01*
X0033636Y0078286D01*
X0033677Y0078213D01*
X0033722Y0078143D01*
X0033769Y0078074D01*
X0033820Y0078008D01*
X0033874Y0077945D01*
X0033931Y0077884D01*
X0033991Y0077825D01*
X0034053Y0077770D01*
X0034118Y0077718D01*
X0034185Y0077668D01*
X0034255Y0077622D01*
X0034326Y0077579D01*
X0034400Y0077540D01*
X0034475Y0077504D01*
X0034552Y0077472D01*
X0034630Y0077443D01*
X0034709Y0077418D01*
X0034790Y0077397D01*
X0034871Y0077379D01*
X0034954Y0077366D01*
X0035037Y0077356D01*
X0035120Y0077350D01*
X0035203Y0077348D01*
X0036981Y0077348D01*
X0028365Y0138348D02*
X0026232Y0144748D01*
X0024098Y0138348D01*
X0024632Y0139948D02*
X0027832Y0139948D01*
X0018833Y0139237D02*
X0018773Y0139364D01*
X0018717Y0139493D01*
X0018664Y0139623D01*
X0018614Y0139755D01*
X0018568Y0139888D01*
X0018526Y0140022D01*
X0018487Y0140157D01*
X0018451Y0140294D01*
X0018420Y0140431D01*
X0018392Y0140569D01*
X0018367Y0140707D01*
X0018347Y0140846D01*
X0018330Y0140986D01*
X0018317Y0141126D01*
X0018308Y0141267D01*
X0018302Y0141407D01*
X0018300Y0141548D01*
X0021855Y0141548D02*
X0021853Y0141689D01*
X0021847Y0141829D01*
X0021838Y0141970D01*
X0021825Y0142110D01*
X0021808Y0142250D01*
X0021788Y0142389D01*
X0021763Y0142527D01*
X0021735Y0142665D01*
X0021704Y0142802D01*
X0021668Y0142939D01*
X0021629Y0143074D01*
X0021587Y0143208D01*
X0021541Y0143341D01*
X0021491Y0143473D01*
X0021438Y0143603D01*
X0021382Y0143732D01*
X0021322Y0143859D01*
X0020078Y0144748D02*
X0020007Y0144746D01*
X0019936Y0144740D01*
X0019866Y0144731D01*
X0019796Y0144717D01*
X0019727Y0144700D01*
X0019660Y0144680D01*
X0019593Y0144655D01*
X0019528Y0144627D01*
X0019464Y0144596D01*
X0019402Y0144561D01*
X0019342Y0144523D01*
X0019285Y0144482D01*
X0019229Y0144438D01*
X0019176Y0144390D01*
X0019126Y0144340D01*
X0019078Y0144288D01*
X0019033Y0144233D01*
X0018992Y0144175D01*
X0018953Y0144115D01*
X0018918Y0144054D01*
X0018886Y0143990D01*
X0018858Y0143925D01*
X0018833Y0143859D01*
X0018656Y0143326D02*
X0021500Y0139770D01*
X0020078Y0138348D02*
X0020007Y0138350D01*
X0019936Y0138356D01*
X0019866Y0138365D01*
X0019796Y0138379D01*
X0019727Y0138396D01*
X0019660Y0138416D01*
X0019593Y0138441D01*
X0019528Y0138469D01*
X0019464Y0138500D01*
X0019402Y0138535D01*
X0019342Y0138573D01*
X0019285Y0138614D01*
X0019229Y0138658D01*
X0019176Y0138706D01*
X0019126Y0138756D01*
X0019078Y0138808D01*
X0019033Y0138863D01*
X0018992Y0138921D01*
X0018953Y0138981D01*
X0018918Y0139042D01*
X0018886Y0139106D01*
X0018858Y0139171D01*
X0018833Y0139237D01*
X0020078Y0138348D02*
X0020149Y0138350D01*
X0020220Y0138356D01*
X0020290Y0138365D01*
X0020360Y0138379D01*
X0020429Y0138396D01*
X0020496Y0138416D01*
X0020563Y0138441D01*
X0020628Y0138469D01*
X0020692Y0138500D01*
X0020754Y0138535D01*
X0020814Y0138573D01*
X0020872Y0138614D01*
X0020927Y0138658D01*
X0020980Y0138706D01*
X0021030Y0138756D01*
X0021078Y0138808D01*
X0021123Y0138863D01*
X0021164Y0138921D01*
X0021203Y0138981D01*
X0021238Y0139042D01*
X0021270Y0139106D01*
X0021298Y0139171D01*
X0021323Y0139237D01*
X0018300Y0141548D02*
X0018302Y0141689D01*
X0018308Y0141829D01*
X0018317Y0141970D01*
X0018330Y0142110D01*
X0018347Y0142250D01*
X0018367Y0142389D01*
X0018392Y0142527D01*
X0018420Y0142665D01*
X0018451Y0142802D01*
X0018487Y0142939D01*
X0018526Y0143074D01*
X0018568Y0143208D01*
X0018614Y0143341D01*
X0018664Y0143473D01*
X0018717Y0143603D01*
X0018773Y0143732D01*
X0018833Y0143859D01*
X0020078Y0144748D02*
X0020149Y0144746D01*
X0020220Y0144740D01*
X0020290Y0144731D01*
X0020360Y0144717D01*
X0020429Y0144700D01*
X0020496Y0144680D01*
X0020563Y0144655D01*
X0020628Y0144627D01*
X0020692Y0144596D01*
X0020754Y0144561D01*
X0020814Y0144523D01*
X0020872Y0144482D01*
X0020927Y0144438D01*
X0020980Y0144390D01*
X0021030Y0144340D01*
X0021078Y0144288D01*
X0021123Y0144233D01*
X0021164Y0144175D01*
X0021203Y0144115D01*
X0021238Y0144054D01*
X0021270Y0143990D01*
X0021298Y0143925D01*
X0021323Y0143859D01*
X0021855Y0141548D02*
X0021853Y0141407D01*
X0021847Y0141267D01*
X0021838Y0141126D01*
X0021825Y0140986D01*
X0021808Y0140846D01*
X0021788Y0140707D01*
X0021763Y0140569D01*
X0021735Y0140431D01*
X0021704Y0140294D01*
X0021668Y0140157D01*
X0021629Y0140022D01*
X0021587Y0139888D01*
X0021541Y0139755D01*
X0021491Y0139623D01*
X0021438Y0139493D01*
X0021382Y0139364D01*
X0021322Y0139237D01*
X0180125Y0139270D02*
X0180125Y0139981D01*
X0180127Y0140055D01*
X0180133Y0140130D01*
X0180143Y0140203D01*
X0180156Y0140277D01*
X0180173Y0140349D01*
X0180195Y0140420D01*
X0180219Y0140491D01*
X0180248Y0140559D01*
X0180280Y0140627D01*
X0180316Y0140692D01*
X0180354Y0140755D01*
X0180397Y0140817D01*
X0180442Y0140876D01*
X0180490Y0140933D01*
X0180541Y0140987D01*
X0180595Y0141038D01*
X0180652Y0141086D01*
X0180711Y0141131D01*
X0180773Y0141174D01*
X0180836Y0141212D01*
X0180901Y0141248D01*
X0180969Y0141280D01*
X0181037Y0141309D01*
X0181108Y0141333D01*
X0181179Y0141355D01*
X0181251Y0141372D01*
X0181325Y0141385D01*
X0181398Y0141395D01*
X0181473Y0141401D01*
X0181547Y0141403D01*
X0181547Y0141404D02*
X0183680Y0141404D01*
X0183680Y0144248D01*
X0180125Y0144248D01*
X0180125Y0139270D02*
X0180127Y0139196D01*
X0180133Y0139121D01*
X0180143Y0139048D01*
X0180156Y0138974D01*
X0180173Y0138902D01*
X0180195Y0138831D01*
X0180219Y0138760D01*
X0180248Y0138692D01*
X0180280Y0138624D01*
X0180316Y0138559D01*
X0180354Y0138496D01*
X0180397Y0138434D01*
X0180442Y0138375D01*
X0180490Y0138318D01*
X0180541Y0138264D01*
X0180595Y0138213D01*
X0180652Y0138165D01*
X0180711Y0138120D01*
X0180773Y0138077D01*
X0180836Y0138039D01*
X0180901Y0138003D01*
X0180969Y0137971D01*
X0181037Y0137942D01*
X0181108Y0137918D01*
X0181179Y0137896D01*
X0181251Y0137879D01*
X0181325Y0137866D01*
X0181398Y0137856D01*
X0181473Y0137850D01*
X0181547Y0137848D01*
X0183680Y0137848D01*
X0186279Y0137848D02*
X0189834Y0137848D01*
X0188056Y0137848D02*
X0188056Y0144248D01*
X0189834Y0142826D01*
X0193922Y0144248D02*
X0193848Y0144246D01*
X0193773Y0144240D01*
X0193700Y0144230D01*
X0193626Y0144217D01*
X0193554Y0144200D01*
X0193483Y0144178D01*
X0193412Y0144154D01*
X0193344Y0144125D01*
X0193276Y0144093D01*
X0193211Y0144057D01*
X0193148Y0144019D01*
X0193086Y0143976D01*
X0193027Y0143931D01*
X0192970Y0143883D01*
X0192916Y0143832D01*
X0192865Y0143778D01*
X0192817Y0143721D01*
X0192772Y0143662D01*
X0192729Y0143600D01*
X0192691Y0143537D01*
X0192655Y0143472D01*
X0192623Y0143404D01*
X0192594Y0143336D01*
X0192570Y0143265D01*
X0192548Y0143194D01*
X0192531Y0143122D01*
X0192518Y0143048D01*
X0192508Y0142975D01*
X0192502Y0142900D01*
X0192500Y0142826D01*
X0192502Y0142752D01*
X0192508Y0142677D01*
X0192518Y0142604D01*
X0192531Y0142530D01*
X0192548Y0142458D01*
X0192570Y0142387D01*
X0192594Y0142316D01*
X0192623Y0142248D01*
X0192655Y0142180D01*
X0192691Y0142115D01*
X0192729Y0142052D01*
X0192772Y0141990D01*
X0192817Y0141931D01*
X0192865Y0141874D01*
X0192916Y0141820D01*
X0192970Y0141769D01*
X0193027Y0141721D01*
X0193086Y0141676D01*
X0193148Y0141633D01*
X0193211Y0141595D01*
X0193276Y0141559D01*
X0193344Y0141527D01*
X0193412Y0141498D01*
X0193483Y0141474D01*
X0193554Y0141452D01*
X0193626Y0141435D01*
X0193700Y0141422D01*
X0193773Y0141412D01*
X0193848Y0141406D01*
X0193922Y0141404D01*
X0195700Y0141404D01*
X0193922Y0141404D02*
X0193839Y0141402D01*
X0193756Y0141396D01*
X0193673Y0141386D01*
X0193590Y0141373D01*
X0193509Y0141355D01*
X0193428Y0141334D01*
X0193349Y0141309D01*
X0193271Y0141280D01*
X0193194Y0141248D01*
X0193119Y0141212D01*
X0193045Y0141173D01*
X0192974Y0141130D01*
X0192904Y0141084D01*
X0192837Y0141034D01*
X0192772Y0140982D01*
X0192710Y0140927D01*
X0192650Y0140868D01*
X0192593Y0140807D01*
X0192539Y0140744D01*
X0192488Y0140678D01*
X0192441Y0140609D01*
X0192396Y0140539D01*
X0192355Y0140466D01*
X0192318Y0140392D01*
X0192283Y0140316D01*
X0192253Y0140238D01*
X0192226Y0140160D01*
X0192203Y0140079D01*
X0192183Y0139998D01*
X0192168Y0139916D01*
X0192156Y0139834D01*
X0192148Y0139751D01*
X0192144Y0139668D01*
X0192144Y0139584D01*
X0192148Y0139501D01*
X0192156Y0139418D01*
X0192168Y0139336D01*
X0192183Y0139254D01*
X0192203Y0139173D01*
X0192226Y0139092D01*
X0192253Y0139014D01*
X0192283Y0138936D01*
X0192318Y0138860D01*
X0192355Y0138786D01*
X0192396Y0138713D01*
X0192441Y0138643D01*
X0192488Y0138574D01*
X0192539Y0138508D01*
X0192593Y0138445D01*
X0192650Y0138384D01*
X0192710Y0138325D01*
X0192772Y0138270D01*
X0192837Y0138218D01*
X0192904Y0138168D01*
X0192974Y0138122D01*
X0193045Y0138079D01*
X0193119Y0138040D01*
X0193194Y0138004D01*
X0193271Y0137972D01*
X0193349Y0137943D01*
X0193428Y0137918D01*
X0193509Y0137897D01*
X0193590Y0137879D01*
X0193673Y0137866D01*
X0193756Y0137856D01*
X0193839Y0137850D01*
X0193922Y0137848D01*
X0195700Y0137848D01*
X0195700Y0144248D01*
X0193922Y0144248D01*
X0193922Y0134248D02*
X0195700Y0134248D01*
X0195700Y0127848D01*
X0193922Y0127848D01*
X0193839Y0127850D01*
X0193756Y0127856D01*
X0193673Y0127866D01*
X0193590Y0127879D01*
X0193509Y0127897D01*
X0193428Y0127918D01*
X0193349Y0127943D01*
X0193271Y0127972D01*
X0193194Y0128004D01*
X0193119Y0128040D01*
X0193045Y0128079D01*
X0192974Y0128122D01*
X0192904Y0128168D01*
X0192837Y0128218D01*
X0192772Y0128270D01*
X0192710Y0128325D01*
X0192650Y0128384D01*
X0192593Y0128445D01*
X0192539Y0128508D01*
X0192488Y0128574D01*
X0192441Y0128643D01*
X0192396Y0128713D01*
X0192355Y0128786D01*
X0192318Y0128860D01*
X0192283Y0128936D01*
X0192253Y0129014D01*
X0192226Y0129092D01*
X0192203Y0129173D01*
X0192183Y0129254D01*
X0192168Y0129336D01*
X0192156Y0129418D01*
X0192148Y0129501D01*
X0192144Y0129584D01*
X0192144Y0129668D01*
X0192148Y0129751D01*
X0192156Y0129834D01*
X0192168Y0129916D01*
X0192183Y0129998D01*
X0192203Y0130079D01*
X0192226Y0130160D01*
X0192253Y0130238D01*
X0192283Y0130316D01*
X0192318Y0130392D01*
X0192355Y0130466D01*
X0192396Y0130539D01*
X0192441Y0130609D01*
X0192488Y0130678D01*
X0192539Y0130744D01*
X0192593Y0130807D01*
X0192650Y0130868D01*
X0192710Y0130927D01*
X0192772Y0130982D01*
X0192837Y0131034D01*
X0192904Y0131084D01*
X0192974Y0131130D01*
X0193045Y0131173D01*
X0193119Y0131212D01*
X0193194Y0131248D01*
X0193271Y0131280D01*
X0193349Y0131309D01*
X0193428Y0131334D01*
X0193509Y0131355D01*
X0193590Y0131373D01*
X0193673Y0131386D01*
X0193756Y0131396D01*
X0193839Y0131402D01*
X0193922Y0131404D01*
X0195700Y0131404D01*
X0193922Y0131404D02*
X0193848Y0131406D01*
X0193773Y0131412D01*
X0193700Y0131422D01*
X0193626Y0131435D01*
X0193554Y0131452D01*
X0193483Y0131474D01*
X0193412Y0131498D01*
X0193344Y0131527D01*
X0193276Y0131559D01*
X0193211Y0131595D01*
X0193148Y0131633D01*
X0193086Y0131676D01*
X0193027Y0131721D01*
X0192970Y0131769D01*
X0192916Y0131820D01*
X0192865Y0131874D01*
X0192817Y0131931D01*
X0192772Y0131990D01*
X0192729Y0132052D01*
X0192691Y0132115D01*
X0192655Y0132180D01*
X0192623Y0132248D01*
X0192594Y0132316D01*
X0192570Y0132387D01*
X0192548Y0132458D01*
X0192531Y0132530D01*
X0192518Y0132604D01*
X0192508Y0132677D01*
X0192502Y0132752D01*
X0192500Y0132826D01*
X0192502Y0132900D01*
X0192508Y0132975D01*
X0192518Y0133048D01*
X0192531Y0133122D01*
X0192548Y0133194D01*
X0192570Y0133265D01*
X0192594Y0133336D01*
X0192623Y0133404D01*
X0192655Y0133472D01*
X0192691Y0133537D01*
X0192729Y0133600D01*
X0192772Y0133662D01*
X0192817Y0133721D01*
X0192865Y0133778D01*
X0192916Y0133832D01*
X0192970Y0133883D01*
X0193027Y0133931D01*
X0193086Y0133976D01*
X0193148Y0134019D01*
X0193211Y0134057D01*
X0193276Y0134093D01*
X0193344Y0134125D01*
X0193412Y0134154D01*
X0193483Y0134178D01*
X0193554Y0134200D01*
X0193626Y0134217D01*
X0193700Y0134230D01*
X0193773Y0134240D01*
X0193848Y0134246D01*
X0193922Y0134248D01*
X0189834Y0132826D02*
X0188056Y0134248D01*
X0188056Y0127848D01*
X0186279Y0127848D02*
X0189834Y0127848D01*
X0188056Y0124248D02*
X0188056Y0117848D01*
X0186279Y0117848D02*
X0189834Y0117848D01*
X0190700Y0114248D02*
X0188922Y0114248D01*
X0188848Y0114246D01*
X0188773Y0114240D01*
X0188700Y0114230D01*
X0188626Y0114217D01*
X0188554Y0114200D01*
X0188483Y0114178D01*
X0188412Y0114154D01*
X0188344Y0114125D01*
X0188276Y0114093D01*
X0188211Y0114057D01*
X0188148Y0114019D01*
X0188086Y0113976D01*
X0188027Y0113931D01*
X0187970Y0113883D01*
X0187916Y0113832D01*
X0187865Y0113778D01*
X0187817Y0113721D01*
X0187772Y0113662D01*
X0187729Y0113600D01*
X0187691Y0113537D01*
X0187655Y0113472D01*
X0187623Y0113404D01*
X0187594Y0113336D01*
X0187570Y0113265D01*
X0187548Y0113194D01*
X0187531Y0113122D01*
X0187518Y0113048D01*
X0187508Y0112975D01*
X0187502Y0112900D01*
X0187500Y0112826D01*
X0187502Y0112752D01*
X0187508Y0112677D01*
X0187518Y0112604D01*
X0187531Y0112530D01*
X0187548Y0112458D01*
X0187570Y0112387D01*
X0187594Y0112316D01*
X0187623Y0112248D01*
X0187655Y0112180D01*
X0187691Y0112115D01*
X0187729Y0112052D01*
X0187772Y0111990D01*
X0187817Y0111931D01*
X0187865Y0111874D01*
X0187916Y0111820D01*
X0187970Y0111769D01*
X0188027Y0111721D01*
X0188086Y0111676D01*
X0188148Y0111633D01*
X0188211Y0111595D01*
X0188276Y0111559D01*
X0188344Y0111527D01*
X0188412Y0111498D01*
X0188483Y0111474D01*
X0188554Y0111452D01*
X0188626Y0111435D01*
X0188700Y0111422D01*
X0188773Y0111412D01*
X0188848Y0111406D01*
X0188922Y0111404D01*
X0190700Y0111404D01*
X0188922Y0111404D02*
X0188839Y0111402D01*
X0188756Y0111396D01*
X0188673Y0111386D01*
X0188590Y0111373D01*
X0188509Y0111355D01*
X0188428Y0111334D01*
X0188349Y0111309D01*
X0188271Y0111280D01*
X0188194Y0111248D01*
X0188119Y0111212D01*
X0188045Y0111173D01*
X0187974Y0111130D01*
X0187904Y0111084D01*
X0187837Y0111034D01*
X0187772Y0110982D01*
X0187710Y0110927D01*
X0187650Y0110868D01*
X0187593Y0110807D01*
X0187539Y0110744D01*
X0187488Y0110678D01*
X0187441Y0110609D01*
X0187396Y0110539D01*
X0187355Y0110466D01*
X0187318Y0110392D01*
X0187283Y0110316D01*
X0187253Y0110238D01*
X0187226Y0110160D01*
X0187203Y0110079D01*
X0187183Y0109998D01*
X0187168Y0109916D01*
X0187156Y0109834D01*
X0187148Y0109751D01*
X0187144Y0109668D01*
X0187144Y0109584D01*
X0187148Y0109501D01*
X0187156Y0109418D01*
X0187168Y0109336D01*
X0187183Y0109254D01*
X0187203Y0109173D01*
X0187226Y0109092D01*
X0187253Y0109014D01*
X0187283Y0108936D01*
X0187318Y0108860D01*
X0187355Y0108786D01*
X0187396Y0108713D01*
X0187441Y0108643D01*
X0187488Y0108574D01*
X0187539Y0108508D01*
X0187593Y0108445D01*
X0187650Y0108384D01*
X0187710Y0108325D01*
X0187772Y0108270D01*
X0187837Y0108218D01*
X0187904Y0108168D01*
X0187974Y0108122D01*
X0188045Y0108079D01*
X0188119Y0108040D01*
X0188194Y0108004D01*
X0188271Y0107972D01*
X0188349Y0107943D01*
X0188428Y0107918D01*
X0188509Y0107897D01*
X0188590Y0107879D01*
X0188673Y0107866D01*
X0188756Y0107856D01*
X0188839Y0107850D01*
X0188922Y0107848D01*
X0190700Y0107848D01*
X0190700Y0114248D01*
X0193922Y0117848D02*
X0195700Y0117848D01*
X0195700Y0124248D01*
X0193922Y0124248D01*
X0193848Y0124246D01*
X0193773Y0124240D01*
X0193700Y0124230D01*
X0193626Y0124217D01*
X0193554Y0124200D01*
X0193483Y0124178D01*
X0193412Y0124154D01*
X0193344Y0124125D01*
X0193276Y0124093D01*
X0193211Y0124057D01*
X0193148Y0124019D01*
X0193086Y0123976D01*
X0193027Y0123931D01*
X0192970Y0123883D01*
X0192916Y0123832D01*
X0192865Y0123778D01*
X0192817Y0123721D01*
X0192772Y0123662D01*
X0192729Y0123600D01*
X0192691Y0123537D01*
X0192655Y0123472D01*
X0192623Y0123404D01*
X0192594Y0123336D01*
X0192570Y0123265D01*
X0192548Y0123194D01*
X0192531Y0123122D01*
X0192518Y0123048D01*
X0192508Y0122975D01*
X0192502Y0122900D01*
X0192500Y0122826D01*
X0192502Y0122752D01*
X0192508Y0122677D01*
X0192518Y0122604D01*
X0192531Y0122530D01*
X0192548Y0122458D01*
X0192570Y0122387D01*
X0192594Y0122316D01*
X0192623Y0122248D01*
X0192655Y0122180D01*
X0192691Y0122115D01*
X0192729Y0122052D01*
X0192772Y0121990D01*
X0192817Y0121931D01*
X0192865Y0121874D01*
X0192916Y0121820D01*
X0192970Y0121769D01*
X0193027Y0121721D01*
X0193086Y0121676D01*
X0193148Y0121633D01*
X0193211Y0121595D01*
X0193276Y0121559D01*
X0193344Y0121527D01*
X0193412Y0121498D01*
X0193483Y0121474D01*
X0193554Y0121452D01*
X0193626Y0121435D01*
X0193700Y0121422D01*
X0193773Y0121412D01*
X0193848Y0121406D01*
X0193922Y0121404D01*
X0195700Y0121404D01*
X0193922Y0121404D02*
X0193839Y0121402D01*
X0193756Y0121396D01*
X0193673Y0121386D01*
X0193590Y0121373D01*
X0193509Y0121355D01*
X0193428Y0121334D01*
X0193349Y0121309D01*
X0193271Y0121280D01*
X0193194Y0121248D01*
X0193119Y0121212D01*
X0193045Y0121173D01*
X0192974Y0121130D01*
X0192904Y0121084D01*
X0192837Y0121034D01*
X0192772Y0120982D01*
X0192710Y0120927D01*
X0192650Y0120868D01*
X0192593Y0120807D01*
X0192539Y0120744D01*
X0192488Y0120678D01*
X0192441Y0120609D01*
X0192396Y0120539D01*
X0192355Y0120466D01*
X0192318Y0120392D01*
X0192283Y0120316D01*
X0192253Y0120238D01*
X0192226Y0120160D01*
X0192203Y0120079D01*
X0192183Y0119998D01*
X0192168Y0119916D01*
X0192156Y0119834D01*
X0192148Y0119751D01*
X0192144Y0119668D01*
X0192144Y0119584D01*
X0192148Y0119501D01*
X0192156Y0119418D01*
X0192168Y0119336D01*
X0192183Y0119254D01*
X0192203Y0119173D01*
X0192226Y0119092D01*
X0192253Y0119014D01*
X0192283Y0118936D01*
X0192318Y0118860D01*
X0192355Y0118786D01*
X0192396Y0118713D01*
X0192441Y0118643D01*
X0192488Y0118574D01*
X0192539Y0118508D01*
X0192593Y0118445D01*
X0192650Y0118384D01*
X0192710Y0118325D01*
X0192772Y0118270D01*
X0192837Y0118218D01*
X0192904Y0118168D01*
X0192974Y0118122D01*
X0193045Y0118079D01*
X0193119Y0118040D01*
X0193194Y0118004D01*
X0193271Y0117972D01*
X0193349Y0117943D01*
X0193428Y0117918D01*
X0193509Y0117897D01*
X0193590Y0117879D01*
X0193673Y0117866D01*
X0193756Y0117856D01*
X0193839Y0117850D01*
X0193922Y0117848D01*
X0189834Y0122826D02*
X0188056Y0124248D01*
X0183680Y0124248D02*
X0181547Y0124248D01*
X0181473Y0124246D01*
X0181398Y0124240D01*
X0181325Y0124230D01*
X0181251Y0124217D01*
X0181179Y0124200D01*
X0181108Y0124178D01*
X0181037Y0124154D01*
X0180969Y0124125D01*
X0180901Y0124093D01*
X0180836Y0124057D01*
X0180773Y0124019D01*
X0180711Y0123976D01*
X0180652Y0123931D01*
X0180595Y0123883D01*
X0180541Y0123832D01*
X0180490Y0123778D01*
X0180442Y0123721D01*
X0180397Y0123662D01*
X0180354Y0123600D01*
X0180316Y0123537D01*
X0180280Y0123472D01*
X0180248Y0123404D01*
X0180219Y0123336D01*
X0180195Y0123265D01*
X0180173Y0123194D01*
X0180156Y0123122D01*
X0180143Y0123048D01*
X0180133Y0122975D01*
X0180127Y0122900D01*
X0180125Y0122826D01*
X0180127Y0122752D01*
X0180133Y0122677D01*
X0180143Y0122604D01*
X0180156Y0122530D01*
X0180173Y0122458D01*
X0180195Y0122387D01*
X0180219Y0122316D01*
X0180248Y0122248D01*
X0180280Y0122180D01*
X0180316Y0122115D01*
X0180354Y0122052D01*
X0180397Y0121990D01*
X0180442Y0121931D01*
X0180490Y0121874D01*
X0180541Y0121820D01*
X0180595Y0121769D01*
X0180652Y0121721D01*
X0180711Y0121676D01*
X0180773Y0121633D01*
X0180836Y0121595D01*
X0180901Y0121559D01*
X0180969Y0121527D01*
X0181037Y0121498D01*
X0181108Y0121474D01*
X0181179Y0121452D01*
X0181251Y0121435D01*
X0181325Y0121422D01*
X0181398Y0121412D01*
X0181473Y0121406D01*
X0181547Y0121404D01*
X0182969Y0121404D01*
X0181902Y0121404D02*
X0181819Y0121402D01*
X0181736Y0121396D01*
X0181653Y0121386D01*
X0181570Y0121373D01*
X0181489Y0121355D01*
X0181408Y0121334D01*
X0181329Y0121309D01*
X0181251Y0121280D01*
X0181174Y0121248D01*
X0181099Y0121212D01*
X0181025Y0121173D01*
X0180954Y0121130D01*
X0180884Y0121084D01*
X0180817Y0121034D01*
X0180752Y0120982D01*
X0180690Y0120927D01*
X0180630Y0120868D01*
X0180573Y0120807D01*
X0180519Y0120744D01*
X0180468Y0120678D01*
X0180421Y0120609D01*
X0180376Y0120539D01*
X0180335Y0120466D01*
X0180298Y0120392D01*
X0180263Y0120316D01*
X0180233Y0120238D01*
X0180206Y0120160D01*
X0180183Y0120079D01*
X0180163Y0119998D01*
X0180148Y0119916D01*
X0180136Y0119834D01*
X0180128Y0119751D01*
X0180124Y0119668D01*
X0180124Y0119584D01*
X0180128Y0119501D01*
X0180136Y0119418D01*
X0180148Y0119336D01*
X0180163Y0119254D01*
X0180183Y0119173D01*
X0180206Y0119092D01*
X0180233Y0119014D01*
X0180263Y0118936D01*
X0180298Y0118860D01*
X0180335Y0118786D01*
X0180376Y0118713D01*
X0180421Y0118643D01*
X0180468Y0118574D01*
X0180519Y0118508D01*
X0180573Y0118445D01*
X0180630Y0118384D01*
X0180690Y0118325D01*
X0180752Y0118270D01*
X0180817Y0118218D01*
X0180884Y0118168D01*
X0180954Y0118122D01*
X0181025Y0118079D01*
X0181099Y0118040D01*
X0181174Y0118004D01*
X0181251Y0117972D01*
X0181329Y0117943D01*
X0181408Y0117918D01*
X0181489Y0117897D01*
X0181570Y0117879D01*
X0181653Y0117866D01*
X0181736Y0117856D01*
X0181819Y0117850D01*
X0181902Y0117848D01*
X0183680Y0117848D01*
X0184834Y0112470D02*
X0184832Y0112553D01*
X0184826Y0112636D01*
X0184816Y0112719D01*
X0184803Y0112802D01*
X0184785Y0112883D01*
X0184764Y0112964D01*
X0184739Y0113043D01*
X0184710Y0113121D01*
X0184678Y0113198D01*
X0184642Y0113273D01*
X0184603Y0113347D01*
X0184560Y0113418D01*
X0184514Y0113488D01*
X0184464Y0113555D01*
X0184412Y0113620D01*
X0184357Y0113682D01*
X0184298Y0113742D01*
X0184237Y0113799D01*
X0184174Y0113853D01*
X0184108Y0113904D01*
X0184039Y0113951D01*
X0183969Y0113996D01*
X0183896Y0114037D01*
X0183822Y0114074D01*
X0183746Y0114109D01*
X0183668Y0114139D01*
X0183590Y0114166D01*
X0183509Y0114189D01*
X0183428Y0114209D01*
X0183346Y0114224D01*
X0183264Y0114236D01*
X0183181Y0114244D01*
X0183098Y0114248D01*
X0183014Y0114248D01*
X0182931Y0114244D01*
X0182848Y0114236D01*
X0182766Y0114224D01*
X0182684Y0114209D01*
X0182603Y0114189D01*
X0182522Y0114166D01*
X0182444Y0114139D01*
X0182366Y0114109D01*
X0182290Y0114074D01*
X0182216Y0114037D01*
X0182143Y0113996D01*
X0182073Y0113951D01*
X0182004Y0113904D01*
X0181938Y0113853D01*
X0181875Y0113799D01*
X0181814Y0113742D01*
X0181755Y0113682D01*
X0181700Y0113620D01*
X0181648Y0113555D01*
X0181598Y0113488D01*
X0181552Y0113418D01*
X0181509Y0113347D01*
X0181470Y0113273D01*
X0181434Y0113198D01*
X0181402Y0113121D01*
X0181373Y0113043D01*
X0181348Y0112964D01*
X0181327Y0112883D01*
X0181309Y0112802D01*
X0181296Y0112719D01*
X0181286Y0112636D01*
X0181280Y0112553D01*
X0181278Y0112470D01*
X0181279Y0112470D02*
X0181279Y0110692D01*
X0183412Y0110692D01*
X0181279Y0110692D02*
X0181281Y0110588D01*
X0181287Y0110484D01*
X0181296Y0110381D01*
X0181309Y0110278D01*
X0181326Y0110175D01*
X0181347Y0110074D01*
X0181371Y0109973D01*
X0181400Y0109873D01*
X0181431Y0109774D01*
X0181467Y0109676D01*
X0181506Y0109580D01*
X0181548Y0109485D01*
X0181594Y0109392D01*
X0181643Y0109300D01*
X0181695Y0109210D01*
X0181751Y0109123D01*
X0181810Y0109037D01*
X0181872Y0108954D01*
X0181937Y0108873D01*
X0182005Y0108794D01*
X0182076Y0108718D01*
X0182149Y0108645D01*
X0182225Y0108574D01*
X0182304Y0108506D01*
X0182385Y0108441D01*
X0182468Y0108379D01*
X0182554Y0108320D01*
X0182641Y0108264D01*
X0182731Y0108212D01*
X0182823Y0108163D01*
X0182916Y0108117D01*
X0183011Y0108075D01*
X0183107Y0108036D01*
X0183205Y0108000D01*
X0183304Y0107969D01*
X0183404Y0107940D01*
X0183505Y0107916D01*
X0183606Y0107895D01*
X0183709Y0107878D01*
X0183812Y0107865D01*
X0183915Y0107856D01*
X0184019Y0107850D01*
X0184123Y0107848D01*
X0183412Y0110693D02*
X0183486Y0110695D01*
X0183561Y0110701D01*
X0183634Y0110711D01*
X0183708Y0110724D01*
X0183780Y0110741D01*
X0183851Y0110763D01*
X0183922Y0110787D01*
X0183990Y0110816D01*
X0184058Y0110848D01*
X0184123Y0110884D01*
X0184186Y0110922D01*
X0184248Y0110965D01*
X0184307Y0111010D01*
X0184364Y0111058D01*
X0184418Y0111109D01*
X0184469Y0111163D01*
X0184517Y0111220D01*
X0184562Y0111279D01*
X0184605Y0111341D01*
X0184643Y0111404D01*
X0184679Y0111469D01*
X0184711Y0111537D01*
X0184740Y0111605D01*
X0184764Y0111676D01*
X0184786Y0111747D01*
X0184803Y0111819D01*
X0184816Y0111893D01*
X0184826Y0111966D01*
X0184832Y0112041D01*
X0184834Y0112115D01*
X0184834Y0112470D01*
X0188922Y0104248D02*
X0190700Y0104248D01*
X0190700Y0097848D01*
X0188922Y0097848D01*
X0188839Y0097850D01*
X0188756Y0097856D01*
X0188673Y0097866D01*
X0188590Y0097879D01*
X0188509Y0097897D01*
X0188428Y0097918D01*
X0188349Y0097943D01*
X0188271Y0097972D01*
X0188194Y0098004D01*
X0188119Y0098040D01*
X0188045Y0098079D01*
X0187974Y0098122D01*
X0187904Y0098168D01*
X0187837Y0098218D01*
X0187772Y0098270D01*
X0187710Y0098325D01*
X0187650Y0098384D01*
X0187593Y0098445D01*
X0187539Y0098508D01*
X0187488Y0098574D01*
X0187441Y0098643D01*
X0187396Y0098713D01*
X0187355Y0098786D01*
X0187318Y0098860D01*
X0187283Y0098936D01*
X0187253Y0099014D01*
X0187226Y0099092D01*
X0187203Y0099173D01*
X0187183Y0099254D01*
X0187168Y0099336D01*
X0187156Y0099418D01*
X0187148Y0099501D01*
X0187144Y0099584D01*
X0187144Y0099668D01*
X0187148Y0099751D01*
X0187156Y0099834D01*
X0187168Y0099916D01*
X0187183Y0099998D01*
X0187203Y0100079D01*
X0187226Y0100160D01*
X0187253Y0100238D01*
X0187283Y0100316D01*
X0187318Y0100392D01*
X0187355Y0100466D01*
X0187396Y0100539D01*
X0187441Y0100609D01*
X0187488Y0100678D01*
X0187539Y0100744D01*
X0187593Y0100807D01*
X0187650Y0100868D01*
X0187710Y0100927D01*
X0187772Y0100982D01*
X0187837Y0101034D01*
X0187904Y0101084D01*
X0187974Y0101130D01*
X0188045Y0101173D01*
X0188119Y0101212D01*
X0188194Y0101248D01*
X0188271Y0101280D01*
X0188349Y0101309D01*
X0188428Y0101334D01*
X0188509Y0101355D01*
X0188590Y0101373D01*
X0188673Y0101386D01*
X0188756Y0101396D01*
X0188839Y0101402D01*
X0188922Y0101404D01*
X0190700Y0101404D01*
X0188922Y0101404D02*
X0188848Y0101406D01*
X0188773Y0101412D01*
X0188700Y0101422D01*
X0188626Y0101435D01*
X0188554Y0101452D01*
X0188483Y0101474D01*
X0188412Y0101498D01*
X0188344Y0101527D01*
X0188276Y0101559D01*
X0188211Y0101595D01*
X0188148Y0101633D01*
X0188086Y0101676D01*
X0188027Y0101721D01*
X0187970Y0101769D01*
X0187916Y0101820D01*
X0187865Y0101874D01*
X0187817Y0101931D01*
X0187772Y0101990D01*
X0187729Y0102052D01*
X0187691Y0102115D01*
X0187655Y0102180D01*
X0187623Y0102248D01*
X0187594Y0102316D01*
X0187570Y0102387D01*
X0187548Y0102458D01*
X0187531Y0102530D01*
X0187518Y0102604D01*
X0187508Y0102677D01*
X0187502Y0102752D01*
X0187500Y0102826D01*
X0187502Y0102900D01*
X0187508Y0102975D01*
X0187518Y0103048D01*
X0187531Y0103122D01*
X0187548Y0103194D01*
X0187570Y0103265D01*
X0187594Y0103336D01*
X0187623Y0103404D01*
X0187655Y0103472D01*
X0187691Y0103537D01*
X0187729Y0103600D01*
X0187772Y0103662D01*
X0187817Y0103721D01*
X0187865Y0103778D01*
X0187916Y0103832D01*
X0187970Y0103883D01*
X0188027Y0103931D01*
X0188086Y0103976D01*
X0188148Y0104019D01*
X0188211Y0104057D01*
X0188276Y0104093D01*
X0188344Y0104125D01*
X0188412Y0104154D01*
X0188483Y0104178D01*
X0188554Y0104200D01*
X0188626Y0104217D01*
X0188700Y0104230D01*
X0188773Y0104240D01*
X0188848Y0104246D01*
X0188922Y0104248D01*
X0184478Y0102826D02*
X0184476Y0102752D01*
X0184470Y0102677D01*
X0184460Y0102604D01*
X0184447Y0102530D01*
X0184430Y0102458D01*
X0184408Y0102387D01*
X0184384Y0102316D01*
X0184355Y0102248D01*
X0184323Y0102180D01*
X0184287Y0102115D01*
X0184249Y0102052D01*
X0184206Y0101990D01*
X0184161Y0101931D01*
X0184113Y0101874D01*
X0184062Y0101820D01*
X0184008Y0101769D01*
X0183951Y0101721D01*
X0183892Y0101676D01*
X0183830Y0101633D01*
X0183767Y0101595D01*
X0183702Y0101559D01*
X0183634Y0101527D01*
X0183566Y0101498D01*
X0183495Y0101474D01*
X0183424Y0101452D01*
X0183352Y0101435D01*
X0183278Y0101422D01*
X0183205Y0101412D01*
X0183130Y0101406D01*
X0183056Y0101404D01*
X0182982Y0101406D01*
X0182907Y0101412D01*
X0182834Y0101422D01*
X0182760Y0101435D01*
X0182688Y0101452D01*
X0182617Y0101474D01*
X0182546Y0101498D01*
X0182478Y0101527D01*
X0182410Y0101559D01*
X0182345Y0101595D01*
X0182282Y0101633D01*
X0182220Y0101676D01*
X0182161Y0101721D01*
X0182104Y0101769D01*
X0182050Y0101820D01*
X0181999Y0101874D01*
X0181951Y0101931D01*
X0181906Y0101990D01*
X0181863Y0102052D01*
X0181825Y0102115D01*
X0181789Y0102180D01*
X0181757Y0102248D01*
X0181728Y0102316D01*
X0181704Y0102387D01*
X0181682Y0102458D01*
X0181665Y0102530D01*
X0181652Y0102604D01*
X0181642Y0102677D01*
X0181636Y0102752D01*
X0181634Y0102826D01*
X0181636Y0102900D01*
X0181642Y0102975D01*
X0181652Y0103048D01*
X0181665Y0103122D01*
X0181682Y0103194D01*
X0181704Y0103265D01*
X0181728Y0103336D01*
X0181757Y0103404D01*
X0181789Y0103472D01*
X0181825Y0103537D01*
X0181863Y0103600D01*
X0181906Y0103662D01*
X0181951Y0103721D01*
X0181999Y0103778D01*
X0182050Y0103832D01*
X0182104Y0103883D01*
X0182161Y0103931D01*
X0182220Y0103976D01*
X0182282Y0104019D01*
X0182345Y0104057D01*
X0182410Y0104093D01*
X0182478Y0104125D01*
X0182546Y0104154D01*
X0182617Y0104178D01*
X0182688Y0104200D01*
X0182760Y0104217D01*
X0182834Y0104230D01*
X0182907Y0104240D01*
X0182982Y0104246D01*
X0183056Y0104248D01*
X0183130Y0104246D01*
X0183205Y0104240D01*
X0183278Y0104230D01*
X0183352Y0104217D01*
X0183424Y0104200D01*
X0183495Y0104178D01*
X0183566Y0104154D01*
X0183634Y0104125D01*
X0183702Y0104093D01*
X0183767Y0104057D01*
X0183830Y0104019D01*
X0183892Y0103976D01*
X0183951Y0103931D01*
X0184008Y0103883D01*
X0184062Y0103832D01*
X0184113Y0103778D01*
X0184161Y0103721D01*
X0184206Y0103662D01*
X0184249Y0103600D01*
X0184287Y0103537D01*
X0184323Y0103472D01*
X0184355Y0103404D01*
X0184384Y0103336D01*
X0184408Y0103265D01*
X0184430Y0103194D01*
X0184447Y0103122D01*
X0184460Y0103048D01*
X0184470Y0102975D01*
X0184476Y0102900D01*
X0184478Y0102826D01*
X0184834Y0099626D02*
X0184832Y0099543D01*
X0184826Y0099460D01*
X0184816Y0099377D01*
X0184803Y0099294D01*
X0184785Y0099213D01*
X0184764Y0099132D01*
X0184739Y0099053D01*
X0184710Y0098975D01*
X0184678Y0098898D01*
X0184642Y0098823D01*
X0184603Y0098749D01*
X0184560Y0098678D01*
X0184514Y0098608D01*
X0184464Y0098541D01*
X0184412Y0098476D01*
X0184357Y0098414D01*
X0184298Y0098354D01*
X0184237Y0098297D01*
X0184174Y0098243D01*
X0184108Y0098192D01*
X0184039Y0098145D01*
X0183969Y0098100D01*
X0183896Y0098059D01*
X0183822Y0098022D01*
X0183746Y0097987D01*
X0183668Y0097957D01*
X0183590Y0097930D01*
X0183509Y0097907D01*
X0183428Y0097887D01*
X0183346Y0097872D01*
X0183264Y0097860D01*
X0183181Y0097852D01*
X0183098Y0097848D01*
X0183014Y0097848D01*
X0182931Y0097852D01*
X0182848Y0097860D01*
X0182766Y0097872D01*
X0182684Y0097887D01*
X0182603Y0097907D01*
X0182522Y0097930D01*
X0182444Y0097957D01*
X0182366Y0097987D01*
X0182290Y0098022D01*
X0182216Y0098059D01*
X0182143Y0098100D01*
X0182073Y0098145D01*
X0182004Y0098192D01*
X0181938Y0098243D01*
X0181875Y0098297D01*
X0181814Y0098354D01*
X0181755Y0098414D01*
X0181700Y0098476D01*
X0181648Y0098541D01*
X0181598Y0098608D01*
X0181552Y0098678D01*
X0181509Y0098749D01*
X0181470Y0098823D01*
X0181434Y0098898D01*
X0181402Y0098975D01*
X0181373Y0099053D01*
X0181348Y0099132D01*
X0181327Y0099213D01*
X0181309Y0099294D01*
X0181296Y0099377D01*
X0181286Y0099460D01*
X0181280Y0099543D01*
X0181278Y0099626D01*
X0181280Y0099709D01*
X0181286Y0099792D01*
X0181296Y0099875D01*
X0181309Y0099958D01*
X0181327Y0100039D01*
X0181348Y0100120D01*
X0181373Y0100199D01*
X0181402Y0100277D01*
X0181434Y0100354D01*
X0181470Y0100429D01*
X0181509Y0100503D01*
X0181552Y0100574D01*
X0181598Y0100644D01*
X0181648Y0100711D01*
X0181700Y0100776D01*
X0181755Y0100838D01*
X0181814Y0100898D01*
X0181875Y0100955D01*
X0181938Y0101009D01*
X0182004Y0101060D01*
X0182073Y0101107D01*
X0182143Y0101152D01*
X0182216Y0101193D01*
X0182290Y0101230D01*
X0182366Y0101265D01*
X0182444Y0101295D01*
X0182522Y0101322D01*
X0182603Y0101345D01*
X0182684Y0101365D01*
X0182766Y0101380D01*
X0182848Y0101392D01*
X0182931Y0101400D01*
X0183014Y0101404D01*
X0183098Y0101404D01*
X0183181Y0101400D01*
X0183264Y0101392D01*
X0183346Y0101380D01*
X0183428Y0101365D01*
X0183509Y0101345D01*
X0183590Y0101322D01*
X0183668Y0101295D01*
X0183746Y0101265D01*
X0183822Y0101230D01*
X0183896Y0101193D01*
X0183969Y0101152D01*
X0184039Y0101107D01*
X0184108Y0101060D01*
X0184174Y0101009D01*
X0184237Y0100955D01*
X0184298Y0100898D01*
X0184357Y0100838D01*
X0184412Y0100776D01*
X0184464Y0100711D01*
X0184514Y0100644D01*
X0184560Y0100574D01*
X0184603Y0100503D01*
X0184642Y0100429D01*
X0184678Y0100354D01*
X0184710Y0100277D01*
X0184739Y0100199D01*
X0184764Y0100120D01*
X0184785Y0100039D01*
X0184803Y0099958D01*
X0184816Y0099875D01*
X0184826Y0099792D01*
X0184832Y0099709D01*
X0184834Y0099626D01*
X0184834Y0094248D02*
X0181279Y0094248D01*
X0183056Y0087848D01*
X0184902Y0084248D02*
X0182768Y0077848D01*
X0180635Y0084248D01*
X0187144Y0084248D02*
X0190700Y0084248D01*
X0190700Y0081404D01*
X0188567Y0081404D01*
X0188567Y0081403D02*
X0188493Y0081401D01*
X0188418Y0081395D01*
X0188345Y0081385D01*
X0188271Y0081372D01*
X0188199Y0081355D01*
X0188128Y0081333D01*
X0188057Y0081309D01*
X0187989Y0081280D01*
X0187921Y0081248D01*
X0187856Y0081212D01*
X0187793Y0081174D01*
X0187731Y0081131D01*
X0187672Y0081086D01*
X0187615Y0081038D01*
X0187561Y0080987D01*
X0187510Y0080933D01*
X0187462Y0080876D01*
X0187417Y0080817D01*
X0187374Y0080755D01*
X0187336Y0080692D01*
X0187300Y0080627D01*
X0187268Y0080559D01*
X0187239Y0080491D01*
X0187215Y0080420D01*
X0187193Y0080349D01*
X0187176Y0080277D01*
X0187163Y0080203D01*
X0187153Y0080130D01*
X0187147Y0080055D01*
X0187145Y0079981D01*
X0187144Y0079981D02*
X0187144Y0079270D01*
X0187145Y0079270D02*
X0187147Y0079196D01*
X0187153Y0079121D01*
X0187163Y0079048D01*
X0187176Y0078974D01*
X0187193Y0078902D01*
X0187215Y0078831D01*
X0187239Y0078760D01*
X0187268Y0078692D01*
X0187300Y0078624D01*
X0187336Y0078559D01*
X0187374Y0078496D01*
X0187417Y0078434D01*
X0187462Y0078375D01*
X0187510Y0078318D01*
X0187561Y0078264D01*
X0187615Y0078213D01*
X0187672Y0078165D01*
X0187731Y0078120D01*
X0187793Y0078077D01*
X0187856Y0078039D01*
X0187921Y0078003D01*
X0187989Y0077971D01*
X0188057Y0077942D01*
X0188128Y0077918D01*
X0188199Y0077896D01*
X0188271Y0077879D01*
X0188345Y0077866D01*
X0188418Y0077856D01*
X0188493Y0077850D01*
X0188567Y0077848D01*
X0190700Y0077848D01*
X0192144Y0074248D02*
X0194278Y0074248D01*
X0194352Y0074246D01*
X0194427Y0074240D01*
X0194500Y0074230D01*
X0194574Y0074217D01*
X0194646Y0074200D01*
X0194717Y0074178D01*
X0194788Y0074154D01*
X0194856Y0074125D01*
X0194924Y0074093D01*
X0194989Y0074057D01*
X0195052Y0074019D01*
X0195114Y0073976D01*
X0195173Y0073931D01*
X0195230Y0073883D01*
X0195284Y0073832D01*
X0195335Y0073778D01*
X0195383Y0073721D01*
X0195428Y0073662D01*
X0195471Y0073600D01*
X0195509Y0073537D01*
X0195545Y0073472D01*
X0195577Y0073404D01*
X0195606Y0073336D01*
X0195630Y0073265D01*
X0195652Y0073194D01*
X0195669Y0073122D01*
X0195682Y0073048D01*
X0195692Y0072975D01*
X0195698Y0072900D01*
X0195700Y0072826D01*
X0195700Y0069270D01*
X0195698Y0069196D01*
X0195692Y0069121D01*
X0195682Y0069048D01*
X0195669Y0068974D01*
X0195652Y0068902D01*
X0195630Y0068831D01*
X0195606Y0068760D01*
X0195577Y0068692D01*
X0195545Y0068624D01*
X0195509Y0068559D01*
X0195471Y0068496D01*
X0195428Y0068434D01*
X0195383Y0068375D01*
X0195335Y0068318D01*
X0195284Y0068264D01*
X0195230Y0068213D01*
X0195173Y0068165D01*
X0195114Y0068120D01*
X0195052Y0068077D01*
X0194989Y0068039D01*
X0194924Y0068003D01*
X0194856Y0067971D01*
X0194788Y0067942D01*
X0194717Y0067918D01*
X0194646Y0067896D01*
X0194574Y0067879D01*
X0194500Y0067866D01*
X0194427Y0067856D01*
X0194352Y0067850D01*
X0194278Y0067848D01*
X0192144Y0067848D01*
X0192144Y0071404D01*
X0193211Y0071404D01*
X0189136Y0074248D02*
X0185580Y0067848D01*
X0185580Y0074248D01*
X0182571Y0074248D02*
X0180794Y0074248D01*
X0182571Y0074248D02*
X0182571Y0067848D01*
X0180794Y0067848D01*
X0180712Y0067850D01*
X0180630Y0067856D01*
X0180548Y0067865D01*
X0180467Y0067878D01*
X0180387Y0067895D01*
X0180307Y0067916D01*
X0180229Y0067940D01*
X0180152Y0067968D01*
X0180076Y0067999D01*
X0180001Y0068034D01*
X0179929Y0068073D01*
X0179858Y0068114D01*
X0179789Y0068159D01*
X0179723Y0068207D01*
X0179658Y0068258D01*
X0179596Y0068312D01*
X0179537Y0068369D01*
X0179480Y0068428D01*
X0179426Y0068490D01*
X0179375Y0068555D01*
X0179327Y0068621D01*
X0179282Y0068690D01*
X0179241Y0068761D01*
X0179202Y0068833D01*
X0179167Y0068908D01*
X0179136Y0068984D01*
X0179108Y0069061D01*
X0179084Y0069139D01*
X0179063Y0069219D01*
X0179046Y0069299D01*
X0179033Y0069380D01*
X0179024Y0069462D01*
X0179018Y0069544D01*
X0179016Y0069626D01*
X0179016Y0072470D01*
X0179018Y0072552D01*
X0179024Y0072634D01*
X0179033Y0072716D01*
X0179046Y0072797D01*
X0179063Y0072877D01*
X0179084Y0072957D01*
X0179108Y0073035D01*
X0179136Y0073112D01*
X0179167Y0073188D01*
X0179202Y0073263D01*
X0179241Y0073335D01*
X0179282Y0073406D01*
X0179327Y0073475D01*
X0179375Y0073541D01*
X0179426Y0073606D01*
X0179480Y0073668D01*
X0179537Y0073727D01*
X0179596Y0073784D01*
X0179658Y0073838D01*
X0179723Y0073889D01*
X0179789Y0073937D01*
X0179858Y0073982D01*
X0179929Y0074023D01*
X0180001Y0074062D01*
X0180076Y0074097D01*
X0180152Y0074128D01*
X0180229Y0074156D01*
X0180307Y0074180D01*
X0180387Y0074201D01*
X0180467Y0074218D01*
X0180548Y0074231D01*
X0180630Y0074240D01*
X0180712Y0074246D01*
X0180794Y0074248D01*
X0189136Y0074248D02*
X0189136Y0067848D01*
X0188922Y0087848D02*
X0190700Y0087848D01*
X0190700Y0094248D01*
X0188922Y0094248D01*
X0188848Y0094246D01*
X0188773Y0094240D01*
X0188700Y0094230D01*
X0188626Y0094217D01*
X0188554Y0094200D01*
X0188483Y0094178D01*
X0188412Y0094154D01*
X0188344Y0094125D01*
X0188276Y0094093D01*
X0188211Y0094057D01*
X0188148Y0094019D01*
X0188086Y0093976D01*
X0188027Y0093931D01*
X0187970Y0093883D01*
X0187916Y0093832D01*
X0187865Y0093778D01*
X0187817Y0093721D01*
X0187772Y0093662D01*
X0187729Y0093600D01*
X0187691Y0093537D01*
X0187655Y0093472D01*
X0187623Y0093404D01*
X0187594Y0093336D01*
X0187570Y0093265D01*
X0187548Y0093194D01*
X0187531Y0093122D01*
X0187518Y0093048D01*
X0187508Y0092975D01*
X0187502Y0092900D01*
X0187500Y0092826D01*
X0187502Y0092752D01*
X0187508Y0092677D01*
X0187518Y0092604D01*
X0187531Y0092530D01*
X0187548Y0092458D01*
X0187570Y0092387D01*
X0187594Y0092316D01*
X0187623Y0092248D01*
X0187655Y0092180D01*
X0187691Y0092115D01*
X0187729Y0092052D01*
X0187772Y0091990D01*
X0187817Y0091931D01*
X0187865Y0091874D01*
X0187916Y0091820D01*
X0187970Y0091769D01*
X0188027Y0091721D01*
X0188086Y0091676D01*
X0188148Y0091633D01*
X0188211Y0091595D01*
X0188276Y0091559D01*
X0188344Y0091527D01*
X0188412Y0091498D01*
X0188483Y0091474D01*
X0188554Y0091452D01*
X0188626Y0091435D01*
X0188700Y0091422D01*
X0188773Y0091412D01*
X0188848Y0091406D01*
X0188922Y0091404D01*
X0190700Y0091404D01*
X0188922Y0091404D02*
X0188839Y0091402D01*
X0188756Y0091396D01*
X0188673Y0091386D01*
X0188590Y0091373D01*
X0188509Y0091355D01*
X0188428Y0091334D01*
X0188349Y0091309D01*
X0188271Y0091280D01*
X0188194Y0091248D01*
X0188119Y0091212D01*
X0188045Y0091173D01*
X0187974Y0091130D01*
X0187904Y0091084D01*
X0187837Y0091034D01*
X0187772Y0090982D01*
X0187710Y0090927D01*
X0187650Y0090868D01*
X0187593Y0090807D01*
X0187539Y0090744D01*
X0187488Y0090678D01*
X0187441Y0090609D01*
X0187396Y0090539D01*
X0187355Y0090466D01*
X0187318Y0090392D01*
X0187283Y0090316D01*
X0187253Y0090238D01*
X0187226Y0090160D01*
X0187203Y0090079D01*
X0187183Y0089998D01*
X0187168Y0089916D01*
X0187156Y0089834D01*
X0187148Y0089751D01*
X0187144Y0089668D01*
X0187144Y0089584D01*
X0187148Y0089501D01*
X0187156Y0089418D01*
X0187168Y0089336D01*
X0187183Y0089254D01*
X0187203Y0089173D01*
X0187226Y0089092D01*
X0187253Y0089014D01*
X0187283Y0088936D01*
X0187318Y0088860D01*
X0187355Y0088786D01*
X0187396Y0088713D01*
X0187441Y0088643D01*
X0187488Y0088574D01*
X0187539Y0088508D01*
X0187593Y0088445D01*
X0187650Y0088384D01*
X0187710Y0088325D01*
X0187772Y0088270D01*
X0187837Y0088218D01*
X0187904Y0088168D01*
X0187974Y0088122D01*
X0188045Y0088079D01*
X0188119Y0088040D01*
X0188194Y0088004D01*
X0188271Y0087972D01*
X0188349Y0087943D01*
X0188428Y0087918D01*
X0188509Y0087897D01*
X0188590Y0087879D01*
X0188673Y0087866D01*
X0188756Y0087856D01*
X0188839Y0087850D01*
X0188922Y0087848D01*
X0184834Y0093537D02*
X0184834Y0094248D01*
X0181191Y0127848D02*
X0181191Y0130692D01*
X0180125Y0129270D02*
X0183680Y0129270D01*
X0182258Y0134248D01*
D12*
X0081450Y0136815D02*
X0081450Y0144481D01*
X0081448Y0144590D01*
X0081442Y0144700D01*
X0081432Y0144809D01*
X0081419Y0144917D01*
X0081401Y0145026D01*
X0081380Y0145133D01*
X0081355Y0145239D01*
X0081326Y0145345D01*
X0081293Y0145450D01*
X0081257Y0145553D01*
X0081217Y0145655D01*
X0081173Y0145755D01*
X0081126Y0145854D01*
X0081075Y0145951D01*
X0081021Y0146046D01*
X0080963Y0146139D01*
X0080902Y0146230D01*
X0080838Y0146319D01*
X0080771Y0146405D01*
X0080701Y0146489D01*
X0080628Y0146571D01*
X0080552Y0146650D01*
X0080473Y0146726D01*
X0080391Y0146799D01*
X0080307Y0146869D01*
X0080221Y0146936D01*
X0080132Y0147000D01*
X0080041Y0147061D01*
X0079948Y0147119D01*
X0079853Y0147173D01*
X0079756Y0147224D01*
X0079657Y0147271D01*
X0079557Y0147315D01*
X0079455Y0147355D01*
X0079352Y0147391D01*
X0079247Y0147424D01*
X0079141Y0147453D01*
X0079035Y0147478D01*
X0078928Y0147499D01*
X0078819Y0147517D01*
X0078711Y0147530D01*
X0078602Y0147540D01*
X0078492Y0147546D01*
X0078383Y0147548D01*
X0073783Y0147548D01*
X0073783Y0141415D02*
X0073783Y0133748D01*
X0078383Y0133748D01*
X0078492Y0133750D01*
X0078602Y0133756D01*
X0078711Y0133766D01*
X0078819Y0133779D01*
X0078928Y0133797D01*
X0079035Y0133818D01*
X0079141Y0133843D01*
X0079247Y0133872D01*
X0079352Y0133905D01*
X0079455Y0133941D01*
X0079557Y0133981D01*
X0079657Y0134025D01*
X0079756Y0134072D01*
X0079853Y0134123D01*
X0079948Y0134177D01*
X0080041Y0134235D01*
X0080132Y0134296D01*
X0080221Y0134360D01*
X0080307Y0134427D01*
X0080391Y0134497D01*
X0080473Y0134570D01*
X0080552Y0134646D01*
X0080628Y0134725D01*
X0080701Y0134807D01*
X0080771Y0134891D01*
X0080838Y0134977D01*
X0080902Y0135066D01*
X0080963Y0135157D01*
X0081021Y0135250D01*
X0081075Y0135345D01*
X0081126Y0135442D01*
X0081173Y0135541D01*
X0081217Y0135641D01*
X0081257Y0135743D01*
X0081293Y0135846D01*
X0081326Y0135951D01*
X0081355Y0136057D01*
X0081380Y0136163D01*
X0081401Y0136270D01*
X0081419Y0136379D01*
X0081432Y0136487D01*
X0081442Y0136596D01*
X0081448Y0136706D01*
X0081450Y0136815D01*
X0076083Y0141415D02*
X0073783Y0141415D01*
X0069032Y0142948D02*
X0065965Y0142948D01*
X0065870Y0142946D01*
X0065775Y0142940D01*
X0065681Y0142930D01*
X0065586Y0142917D01*
X0065493Y0142899D01*
X0065400Y0142878D01*
X0065309Y0142852D01*
X0065218Y0142823D01*
X0065129Y0142791D01*
X0065041Y0142754D01*
X0064955Y0142714D01*
X0064870Y0142671D01*
X0064788Y0142624D01*
X0064707Y0142573D01*
X0064629Y0142520D01*
X0064552Y0142463D01*
X0064479Y0142403D01*
X0064407Y0142340D01*
X0064339Y0142274D01*
X0064273Y0142206D01*
X0064210Y0142134D01*
X0064150Y0142061D01*
X0064093Y0141984D01*
X0064040Y0141906D01*
X0063989Y0141825D01*
X0063942Y0141743D01*
X0063899Y0141658D01*
X0063859Y0141572D01*
X0063822Y0141484D01*
X0063790Y0141395D01*
X0063761Y0141304D01*
X0063735Y0141213D01*
X0063714Y0141120D01*
X0063696Y0141027D01*
X0063683Y0140932D01*
X0063673Y0140838D01*
X0063667Y0140743D01*
X0063665Y0140648D01*
X0063665Y0133748D01*
X0067115Y0133748D01*
X0067218Y0133750D01*
X0067320Y0133756D01*
X0067423Y0133766D01*
X0067525Y0133779D01*
X0067626Y0133797D01*
X0067726Y0133819D01*
X0067826Y0133844D01*
X0067925Y0133873D01*
X0068022Y0133906D01*
X0068118Y0133943D01*
X0068213Y0133983D01*
X0068306Y0134027D01*
X0068397Y0134074D01*
X0068486Y0134125D01*
X0068573Y0134179D01*
X0068659Y0134236D01*
X0068742Y0134297D01*
X0068822Y0134361D01*
X0068900Y0134428D01*
X0068975Y0134498D01*
X0069048Y0134571D01*
X0069118Y0134646D01*
X0069185Y0134724D01*
X0069249Y0134804D01*
X0069310Y0134887D01*
X0069367Y0134973D01*
X0069421Y0135060D01*
X0069472Y0135149D01*
X0069519Y0135240D01*
X0069563Y0135333D01*
X0069603Y0135428D01*
X0069640Y0135524D01*
X0069673Y0135621D01*
X0069702Y0135720D01*
X0069727Y0135820D01*
X0069749Y0135920D01*
X0069767Y0136021D01*
X0069780Y0136123D01*
X0069790Y0136226D01*
X0069796Y0136328D01*
X0069798Y0136431D01*
X0069796Y0136534D01*
X0069790Y0136636D01*
X0069780Y0136739D01*
X0069767Y0136841D01*
X0069749Y0136942D01*
X0069727Y0137042D01*
X0069702Y0137142D01*
X0069673Y0137241D01*
X0069640Y0137338D01*
X0069603Y0137434D01*
X0069563Y0137529D01*
X0069519Y0137622D01*
X0069472Y0137713D01*
X0069421Y0137802D01*
X0069367Y0137889D01*
X0069310Y0137975D01*
X0069249Y0138058D01*
X0069185Y0138138D01*
X0069118Y0138216D01*
X0069048Y0138291D01*
X0068975Y0138364D01*
X0068900Y0138434D01*
X0068822Y0138501D01*
X0068742Y0138565D01*
X0068659Y0138626D01*
X0068573Y0138683D01*
X0068486Y0138737D01*
X0068397Y0138788D01*
X0068306Y0138835D01*
X0068213Y0138879D01*
X0068118Y0138919D01*
X0068022Y0138956D01*
X0067925Y0138989D01*
X0067826Y0139018D01*
X0067726Y0139043D01*
X0067626Y0139065D01*
X0067525Y0139083D01*
X0067423Y0139096D01*
X0067320Y0139106D01*
X0067218Y0139112D01*
X0067115Y0139114D01*
X0067115Y0139115D02*
X0063665Y0139115D01*
X0059308Y0142948D02*
X0059308Y0133748D01*
X0053175Y0133748D02*
X0053175Y0140648D01*
X0053177Y0140743D01*
X0053183Y0140838D01*
X0053193Y0140932D01*
X0053206Y0141027D01*
X0053224Y0141120D01*
X0053245Y0141213D01*
X0053271Y0141304D01*
X0053300Y0141395D01*
X0053332Y0141484D01*
X0053369Y0141572D01*
X0053409Y0141658D01*
X0053452Y0141743D01*
X0053499Y0141825D01*
X0053550Y0141906D01*
X0053603Y0141984D01*
X0053660Y0142061D01*
X0053720Y0142134D01*
X0053783Y0142206D01*
X0053849Y0142274D01*
X0053917Y0142340D01*
X0053989Y0142403D01*
X0054062Y0142463D01*
X0054139Y0142520D01*
X0054217Y0142573D01*
X0054298Y0142624D01*
X0054380Y0142671D01*
X0054465Y0142714D01*
X0054551Y0142754D01*
X0054639Y0142791D01*
X0054728Y0142823D01*
X0054819Y0142852D01*
X0054910Y0142878D01*
X0055003Y0142899D01*
X0055096Y0142917D01*
X0055191Y0142930D01*
X0055285Y0142940D01*
X0055380Y0142946D01*
X0055475Y0142948D01*
X0059308Y0142948D01*
X0049174Y0140648D02*
X0049174Y0136048D01*
X0049172Y0135953D01*
X0049166Y0135858D01*
X0049156Y0135764D01*
X0049143Y0135669D01*
X0049125Y0135576D01*
X0049104Y0135483D01*
X0049078Y0135392D01*
X0049049Y0135301D01*
X0049017Y0135212D01*
X0048980Y0135124D01*
X0048940Y0135038D01*
X0048897Y0134953D01*
X0048850Y0134871D01*
X0048799Y0134790D01*
X0048746Y0134712D01*
X0048689Y0134635D01*
X0048629Y0134562D01*
X0048566Y0134490D01*
X0048500Y0134422D01*
X0048432Y0134356D01*
X0048360Y0134293D01*
X0048287Y0134233D01*
X0048210Y0134176D01*
X0048132Y0134123D01*
X0048051Y0134072D01*
X0047969Y0134025D01*
X0047884Y0133982D01*
X0047798Y0133942D01*
X0047710Y0133905D01*
X0047621Y0133873D01*
X0047530Y0133844D01*
X0047439Y0133818D01*
X0047346Y0133797D01*
X0047253Y0133779D01*
X0047158Y0133766D01*
X0047064Y0133756D01*
X0046969Y0133750D01*
X0046874Y0133748D01*
X0043041Y0133748D01*
X0043041Y0131448D02*
X0043041Y0142948D01*
X0046874Y0142948D01*
X0046969Y0142946D01*
X0047064Y0142940D01*
X0047158Y0142930D01*
X0047253Y0142917D01*
X0047346Y0142899D01*
X0047439Y0142878D01*
X0047530Y0142852D01*
X0047621Y0142823D01*
X0047710Y0142791D01*
X0047798Y0142754D01*
X0047884Y0142714D01*
X0047969Y0142671D01*
X0048051Y0142624D01*
X0048132Y0142573D01*
X0048210Y0142520D01*
X0048287Y0142463D01*
X0048360Y0142403D01*
X0048432Y0142340D01*
X0048500Y0142274D01*
X0048566Y0142206D01*
X0048629Y0142134D01*
X0048689Y0142061D01*
X0048746Y0141984D01*
X0048799Y0141906D01*
X0048850Y0141825D01*
X0048897Y0141743D01*
X0048940Y0141658D01*
X0048980Y0141572D01*
X0049017Y0141484D01*
X0049049Y0141395D01*
X0049078Y0141304D01*
X0049104Y0141213D01*
X0049125Y0141120D01*
X0049143Y0141027D01*
X0049156Y0140932D01*
X0049166Y0140838D01*
X0049172Y0140743D01*
X0049174Y0140648D01*
X0043041Y0131448D02*
X0043043Y0131353D01*
X0043049Y0131258D01*
X0043059Y0131164D01*
X0043072Y0131069D01*
X0043090Y0130976D01*
X0043111Y0130883D01*
X0043137Y0130792D01*
X0043166Y0130701D01*
X0043198Y0130612D01*
X0043235Y0130524D01*
X0043275Y0130438D01*
X0043318Y0130353D01*
X0043365Y0130271D01*
X0043416Y0130190D01*
X0043469Y0130112D01*
X0043526Y0130035D01*
X0043586Y0129962D01*
X0043649Y0129890D01*
X0043715Y0129822D01*
X0043783Y0129756D01*
X0043855Y0129693D01*
X0043928Y0129633D01*
X0044005Y0129576D01*
X0044083Y0129523D01*
X0044164Y0129472D01*
X0044246Y0129425D01*
X0044331Y0129382D01*
X0044417Y0129342D01*
X0044505Y0129305D01*
X0044594Y0129273D01*
X0044685Y0129244D01*
X0044776Y0129218D01*
X0044869Y0129197D01*
X0044962Y0129179D01*
X0045057Y0129166D01*
X0045151Y0129156D01*
X0045246Y0129150D01*
X0045341Y0129148D01*
X0048407Y0129148D01*
X0048407Y0151648D02*
X0045341Y0151648D01*
X0045246Y0151650D01*
X0045151Y0151656D01*
X0045057Y0151666D01*
X0044962Y0151679D01*
X0044869Y0151697D01*
X0044776Y0151718D01*
X0044685Y0151744D01*
X0044594Y0151773D01*
X0044505Y0151805D01*
X0044417Y0151842D01*
X0044331Y0151882D01*
X0044246Y0151925D01*
X0044164Y0151972D01*
X0044083Y0152023D01*
X0044005Y0152076D01*
X0043928Y0152133D01*
X0043855Y0152193D01*
X0043783Y0152256D01*
X0043715Y0152322D01*
X0043649Y0152390D01*
X0043586Y0152462D01*
X0043526Y0152535D01*
X0043469Y0152612D01*
X0043416Y0152690D01*
X0043365Y0152771D01*
X0043318Y0152853D01*
X0043275Y0152938D01*
X0043235Y0153024D01*
X0043198Y0153112D01*
X0043166Y0153201D01*
X0043137Y0153292D01*
X0043111Y0153383D01*
X0043090Y0153476D01*
X0043072Y0153569D01*
X0043059Y0153664D01*
X0043049Y0153758D01*
X0043043Y0153853D01*
X0043041Y0153948D01*
X0043041Y0165448D01*
X0046874Y0165448D01*
X0046969Y0165446D01*
X0047064Y0165440D01*
X0047158Y0165430D01*
X0047253Y0165417D01*
X0047346Y0165399D01*
X0047439Y0165378D01*
X0047530Y0165352D01*
X0047621Y0165323D01*
X0047710Y0165291D01*
X0047798Y0165254D01*
X0047884Y0165214D01*
X0047969Y0165171D01*
X0048051Y0165124D01*
X0048132Y0165073D01*
X0048210Y0165020D01*
X0048287Y0164963D01*
X0048360Y0164903D01*
X0048432Y0164840D01*
X0048500Y0164774D01*
X0048566Y0164706D01*
X0048629Y0164634D01*
X0048689Y0164561D01*
X0048746Y0164484D01*
X0048799Y0164406D01*
X0048850Y0164325D01*
X0048897Y0164243D01*
X0048940Y0164158D01*
X0048980Y0164072D01*
X0049017Y0163984D01*
X0049049Y0163895D01*
X0049078Y0163804D01*
X0049104Y0163713D01*
X0049125Y0163620D01*
X0049143Y0163527D01*
X0049156Y0163432D01*
X0049166Y0163338D01*
X0049172Y0163243D01*
X0049174Y0163148D01*
X0049174Y0158548D01*
X0049172Y0158453D01*
X0049166Y0158358D01*
X0049156Y0158264D01*
X0049143Y0158169D01*
X0049125Y0158076D01*
X0049104Y0157983D01*
X0049078Y0157892D01*
X0049049Y0157801D01*
X0049017Y0157712D01*
X0048980Y0157624D01*
X0048940Y0157538D01*
X0048897Y0157453D01*
X0048850Y0157371D01*
X0048799Y0157290D01*
X0048746Y0157212D01*
X0048689Y0157135D01*
X0048629Y0157062D01*
X0048566Y0156990D01*
X0048500Y0156922D01*
X0048432Y0156856D01*
X0048360Y0156793D01*
X0048287Y0156733D01*
X0048210Y0156676D01*
X0048132Y0156623D01*
X0048051Y0156572D01*
X0047969Y0156525D01*
X0047884Y0156482D01*
X0047798Y0156442D01*
X0047710Y0156405D01*
X0047621Y0156373D01*
X0047530Y0156344D01*
X0047439Y0156318D01*
X0047346Y0156297D01*
X0047253Y0156279D01*
X0047158Y0156266D01*
X0047064Y0156256D01*
X0046969Y0156250D01*
X0046874Y0156248D01*
X0043041Y0156248D01*
X0053175Y0156248D02*
X0053175Y0163148D01*
X0053177Y0163243D01*
X0053183Y0163338D01*
X0053193Y0163432D01*
X0053206Y0163527D01*
X0053224Y0163620D01*
X0053245Y0163713D01*
X0053271Y0163804D01*
X0053300Y0163895D01*
X0053332Y0163984D01*
X0053369Y0164072D01*
X0053409Y0164158D01*
X0053452Y0164243D01*
X0053499Y0164325D01*
X0053550Y0164406D01*
X0053603Y0164484D01*
X0053660Y0164561D01*
X0053720Y0164634D01*
X0053783Y0164706D01*
X0053849Y0164774D01*
X0053917Y0164840D01*
X0053989Y0164903D01*
X0054062Y0164963D01*
X0054139Y0165020D01*
X0054217Y0165073D01*
X0054298Y0165124D01*
X0054380Y0165171D01*
X0054465Y0165214D01*
X0054551Y0165254D01*
X0054639Y0165291D01*
X0054728Y0165323D01*
X0054819Y0165352D01*
X0054910Y0165378D01*
X0055003Y0165399D01*
X0055096Y0165417D01*
X0055191Y0165430D01*
X0055285Y0165440D01*
X0055380Y0165446D01*
X0055475Y0165448D01*
X0059308Y0165448D01*
X0059308Y0156248D01*
X0063665Y0156248D02*
X0063665Y0163148D01*
X0063665Y0161615D02*
X0067115Y0161615D01*
X0063665Y0163148D02*
X0063667Y0163243D01*
X0063673Y0163338D01*
X0063683Y0163432D01*
X0063696Y0163527D01*
X0063714Y0163620D01*
X0063735Y0163713D01*
X0063761Y0163804D01*
X0063790Y0163895D01*
X0063822Y0163984D01*
X0063859Y0164072D01*
X0063899Y0164158D01*
X0063942Y0164243D01*
X0063989Y0164325D01*
X0064040Y0164406D01*
X0064093Y0164484D01*
X0064150Y0164561D01*
X0064210Y0164634D01*
X0064273Y0164706D01*
X0064339Y0164774D01*
X0064407Y0164840D01*
X0064479Y0164903D01*
X0064552Y0164963D01*
X0064629Y0165020D01*
X0064707Y0165073D01*
X0064788Y0165124D01*
X0064870Y0165171D01*
X0064955Y0165214D01*
X0065041Y0165254D01*
X0065129Y0165291D01*
X0065218Y0165323D01*
X0065309Y0165352D01*
X0065400Y0165378D01*
X0065493Y0165399D01*
X0065586Y0165417D01*
X0065681Y0165430D01*
X0065775Y0165440D01*
X0065870Y0165446D01*
X0065965Y0165448D01*
X0069032Y0165448D01*
X0073783Y0163915D02*
X0073783Y0156248D01*
X0078383Y0156248D01*
X0078492Y0156250D01*
X0078602Y0156256D01*
X0078711Y0156266D01*
X0078819Y0156279D01*
X0078928Y0156297D01*
X0079035Y0156318D01*
X0079141Y0156343D01*
X0079247Y0156372D01*
X0079352Y0156405D01*
X0079455Y0156441D01*
X0079557Y0156481D01*
X0079657Y0156525D01*
X0079756Y0156572D01*
X0079853Y0156623D01*
X0079948Y0156677D01*
X0080041Y0156735D01*
X0080132Y0156796D01*
X0080221Y0156860D01*
X0080307Y0156927D01*
X0080391Y0156997D01*
X0080473Y0157070D01*
X0080552Y0157146D01*
X0080628Y0157225D01*
X0080701Y0157307D01*
X0080771Y0157391D01*
X0080838Y0157477D01*
X0080902Y0157566D01*
X0080963Y0157657D01*
X0081021Y0157750D01*
X0081075Y0157845D01*
X0081126Y0157942D01*
X0081173Y0158041D01*
X0081217Y0158141D01*
X0081257Y0158243D01*
X0081293Y0158346D01*
X0081326Y0158451D01*
X0081355Y0158557D01*
X0081380Y0158663D01*
X0081401Y0158770D01*
X0081419Y0158879D01*
X0081432Y0158987D01*
X0081442Y0159096D01*
X0081448Y0159206D01*
X0081450Y0159315D01*
X0081450Y0166981D01*
X0081448Y0167090D01*
X0081442Y0167200D01*
X0081432Y0167309D01*
X0081419Y0167417D01*
X0081401Y0167526D01*
X0081380Y0167633D01*
X0081355Y0167739D01*
X0081326Y0167845D01*
X0081293Y0167950D01*
X0081257Y0168053D01*
X0081217Y0168155D01*
X0081173Y0168255D01*
X0081126Y0168354D01*
X0081075Y0168451D01*
X0081021Y0168546D01*
X0080963Y0168639D01*
X0080902Y0168730D01*
X0080838Y0168819D01*
X0080771Y0168905D01*
X0080701Y0168989D01*
X0080628Y0169071D01*
X0080552Y0169150D01*
X0080473Y0169226D01*
X0080391Y0169299D01*
X0080307Y0169369D01*
X0080221Y0169436D01*
X0080132Y0169500D01*
X0080041Y0169561D01*
X0079948Y0169619D01*
X0079853Y0169673D01*
X0079756Y0169724D01*
X0079657Y0169771D01*
X0079557Y0169815D01*
X0079455Y0169855D01*
X0079352Y0169891D01*
X0079247Y0169924D01*
X0079141Y0169953D01*
X0079035Y0169978D01*
X0078928Y0169999D01*
X0078819Y0170017D01*
X0078711Y0170030D01*
X0078602Y0170040D01*
X0078492Y0170046D01*
X0078383Y0170048D01*
X0073783Y0170048D01*
X0073783Y0163915D02*
X0076083Y0163915D01*
X0067115Y0161614D02*
X0067218Y0161612D01*
X0067320Y0161606D01*
X0067423Y0161596D01*
X0067525Y0161583D01*
X0067626Y0161565D01*
X0067726Y0161543D01*
X0067826Y0161518D01*
X0067925Y0161489D01*
X0068022Y0161456D01*
X0068118Y0161419D01*
X0068213Y0161379D01*
X0068306Y0161335D01*
X0068397Y0161288D01*
X0068486Y0161237D01*
X0068573Y0161183D01*
X0068659Y0161126D01*
X0068742Y0161065D01*
X0068822Y0161001D01*
X0068900Y0160934D01*
X0068975Y0160864D01*
X0069048Y0160791D01*
X0069118Y0160716D01*
X0069185Y0160638D01*
X0069249Y0160558D01*
X0069310Y0160475D01*
X0069367Y0160389D01*
X0069421Y0160302D01*
X0069472Y0160213D01*
X0069519Y0160122D01*
X0069563Y0160029D01*
X0069603Y0159934D01*
X0069640Y0159838D01*
X0069673Y0159741D01*
X0069702Y0159642D01*
X0069727Y0159542D01*
X0069749Y0159442D01*
X0069767Y0159341D01*
X0069780Y0159239D01*
X0069790Y0159136D01*
X0069796Y0159034D01*
X0069798Y0158931D01*
X0069796Y0158828D01*
X0069790Y0158726D01*
X0069780Y0158623D01*
X0069767Y0158521D01*
X0069749Y0158420D01*
X0069727Y0158320D01*
X0069702Y0158220D01*
X0069673Y0158121D01*
X0069640Y0158024D01*
X0069603Y0157928D01*
X0069563Y0157833D01*
X0069519Y0157740D01*
X0069472Y0157649D01*
X0069421Y0157560D01*
X0069367Y0157473D01*
X0069310Y0157387D01*
X0069249Y0157304D01*
X0069185Y0157224D01*
X0069118Y0157146D01*
X0069048Y0157071D01*
X0068975Y0156998D01*
X0068900Y0156928D01*
X0068822Y0156861D01*
X0068742Y0156797D01*
X0068659Y0156736D01*
X0068573Y0156679D01*
X0068486Y0156625D01*
X0068397Y0156574D01*
X0068306Y0156527D01*
X0068213Y0156483D01*
X0068118Y0156443D01*
X0068022Y0156406D01*
X0067925Y0156373D01*
X0067826Y0156344D01*
X0067726Y0156319D01*
X0067626Y0156297D01*
X0067525Y0156279D01*
X0067423Y0156266D01*
X0067320Y0156256D01*
X0067218Y0156250D01*
X0067115Y0156248D01*
X0063665Y0156248D01*
D13*
X0166831Y0042402D02*
X0202264Y0042402D01*
X0202264Y0011694D01*
X0166831Y0011694D01*
X0166831Y0042402D01*
X0180610Y0030001D02*
X0200295Y0031969D01*
X0200295Y0034922D02*
X0182579Y0032954D01*
X0180610Y0030001D02*
X0180610Y0024095D01*
X0200295Y0022127D01*
X0200295Y0019174D02*
X0184547Y0021143D01*
X0184547Y0013269D02*
X0200295Y0015237D01*
X0200295Y0019174D01*
X0200295Y0034922D02*
X0200295Y0038859D01*
X0182579Y0040828D01*
M02*
